<mxfile host="app.diagrams.net" modified="2023-07-20T12:38:29.771Z" agent="Mozilla/5.0 (Windows NT 10.0; Win64; x64; rv:109.0) Gecko/20100101 Firefox/115.0" etag="WnPr7ZwvOLEm8aoxZt-T" version="21.3.7" type="github" pages="2">
  <diagram name="Page-1" id="QKU1yxuAGBs1kIirZdxU">
    <mxGraphModel dx="1072" dy="689" grid="1" gridSize="10" guides="1" tooltips="1" connect="1" arrows="1" fold="1" page="1" pageScale="1" pageWidth="1169" pageHeight="827" math="0" shadow="0">
      <root>
        <mxCell id="0" />
        <mxCell id="1" parent="0" />
        <mxCell id="DsQyGy5s8J0od0-_Xuvn-1" value="" style="shape=image;verticalLabelPosition=bottom;labelBackgroundColor=default;verticalAlign=top;aspect=fixed;imageAspect=0;image=https://upload.wikimedia.org/wikipedia/commons/thumb/e/e0/Git-logo.svg/1920px-Git-logo.svg.png;" vertex="1" parent="1">
          <mxGeometry x="40" y="300" width="100" height="41.75" as="geometry" />
        </mxCell>
        <mxCell id="DsQyGy5s8J0od0-_Xuvn-2" value="" style="shape=image;verticalLabelPosition=bottom;labelBackgroundColor=default;verticalAlign=top;aspect=fixed;imageAspect=0;image=https://upload.wikimedia.org/wikipedia/commons/thumb/c/c2/GitHub_Invertocat_Logo.svg/200px-GitHub_Invertocat_Logo.svg.png;" vertex="1" parent="1">
          <mxGeometry x="331.11" y="180" width="80" height="80" as="geometry" />
        </mxCell>
        <mxCell id="DsQyGy5s8J0od0-_Xuvn-3" value="" style="shape=image;verticalLabelPosition=bottom;labelBackgroundColor=default;verticalAlign=top;aspect=fixed;imageAspect=0;image=https://upload.wikimedia.org/wikipedia/en/thumb/d/df/BitBucket_SVG_Logo.svg/250px-BitBucket_SVG_Logo.svg.png;" vertex="1" parent="1">
          <mxGeometry x="290" y="430" width="222.22" height="40" as="geometry" />
        </mxCell>
        <mxCell id="DsQyGy5s8J0od0-_Xuvn-4" value="" style="shape=image;verticalLabelPosition=bottom;labelBackgroundColor=default;verticalAlign=top;aspect=fixed;imageAspect=0;image=https://upload.wikimedia.org/wikipedia/commons/thumb/c/c8/GitLab_logo_%282%29.svg/220px-GitLab_logo_%282%29.svg.png;" vertex="1" parent="1">
          <mxGeometry x="280" y="321.99" width="182.22" height="39.76" as="geometry" />
        </mxCell>
        <mxCell id="DsQyGy5s8J0od0-_Xuvn-5" value="" style="endArrow=classic;html=1;rounded=0;" edge="1" parent="1">
          <mxGeometry width="50" height="50" relative="1" as="geometry">
            <mxPoint x="870" y="590" as="sourcePoint" />
            <mxPoint x="920" y="540" as="targetPoint" />
          </mxGeometry>
        </mxCell>
        <mxCell id="DsQyGy5s8J0od0-_Xuvn-6" value="" style="endArrow=classic;html=1;rounded=0;" edge="1" parent="1">
          <mxGeometry width="50" height="50" relative="1" as="geometry">
            <mxPoint x="160" y="310" as="sourcePoint" />
            <mxPoint x="310" y="240" as="targetPoint" />
          </mxGeometry>
        </mxCell>
        <mxCell id="DsQyGy5s8J0od0-_Xuvn-7" value="" style="endArrow=classic;html=1;rounded=0;" edge="1" parent="1">
          <mxGeometry width="50" height="50" relative="1" as="geometry">
            <mxPoint x="160" y="320" as="sourcePoint" />
            <mxPoint x="250" y="330" as="targetPoint" />
          </mxGeometry>
        </mxCell>
        <mxCell id="DsQyGy5s8J0od0-_Xuvn-8" value="" style="endArrow=classic;html=1;rounded=0;" edge="1" parent="1">
          <mxGeometry width="50" height="50" relative="1" as="geometry">
            <mxPoint x="160" y="330" as="sourcePoint" />
            <mxPoint x="260" y="450" as="targetPoint" />
          </mxGeometry>
        </mxCell>
        <mxCell id="SVLck4oqUuRZuGiBwl6L-1" value="" style="shape=image;verticalLabelPosition=bottom;labelBackgroundColor=default;verticalAlign=top;aspect=fixed;imageAspect=0;image=https://assets-global.website-files.com/622642781cd7e96ac1f66807/62d0ef2b68ea1652c722e7a6_image-10.png;" vertex="1" parent="1">
          <mxGeometry x="610" y="710" width="583" height="276" as="geometry" />
        </mxCell>
        <mxCell id="SVLck4oqUuRZuGiBwl6L-2" value="&lt;b&gt;Repository&lt;/b&gt;" style="text;strokeColor=none;align=center;fillColor=none;html=1;verticalAlign=middle;whiteSpace=wrap;rounded=0;" vertex="1" parent="1">
          <mxGeometry x="70" y="670" width="60" height="30" as="geometry" />
        </mxCell>
        <mxCell id="SVLck4oqUuRZuGiBwl6L-3" value="&lt;div&gt;&lt;b&gt;&lt;font style=&quot;font-size: 16px;&quot;&gt;Version Control &lt;br&gt;&lt;/font&gt;&lt;/b&gt;&lt;/div&gt;" style="text;strokeColor=none;align=center;fillColor=none;html=1;verticalAlign=middle;whiteSpace=wrap;rounded=0;" vertex="1" parent="1">
          <mxGeometry x="70" y="90" width="190" height="30" as="geometry" />
        </mxCell>
        <mxCell id="SVLck4oqUuRZuGiBwl6L-4" value="&lt;div&gt;&lt;b&gt;&lt;font style=&quot;font-size: 16px;&quot;&gt;Github&lt;br&gt;&lt;/font&gt;&lt;/b&gt;&lt;/div&gt;" style="text;strokeColor=none;align=center;fillColor=none;html=1;verticalAlign=middle;whiteSpace=wrap;rounded=0;" vertex="1" parent="1">
          <mxGeometry x="440" y="210" width="100" height="30" as="geometry" />
        </mxCell>
        <mxCell id="SVLck4oqUuRZuGiBwl6L-6" value="" style="ellipse;whiteSpace=wrap;html=1;aspect=fixed;fillColor=#dae8fc;strokeColor=#6c8ebf;" vertex="1" parent="1">
          <mxGeometry x="155" y="960" width="20" height="20" as="geometry" />
        </mxCell>
        <mxCell id="SVLck4oqUuRZuGiBwl6L-7" value="" style="endArrow=classic;html=1;rounded=0;" edge="1" parent="1">
          <mxGeometry width="50" height="50" relative="1" as="geometry">
            <mxPoint x="180" y="970" as="sourcePoint" />
            <mxPoint x="280" y="970" as="targetPoint" />
          </mxGeometry>
        </mxCell>
        <mxCell id="SVLck4oqUuRZuGiBwl6L-8" value="" style="ellipse;whiteSpace=wrap;html=1;aspect=fixed;fillColor=#dae8fc;strokeColor=#6c8ebf;" vertex="1" parent="1">
          <mxGeometry x="280" y="960" width="20" height="20" as="geometry" />
        </mxCell>
        <mxCell id="SVLck4oqUuRZuGiBwl6L-11" value="" style="endArrow=classic;html=1;rounded=0;" edge="1" parent="1">
          <mxGeometry width="50" height="50" relative="1" as="geometry">
            <mxPoint x="303.11" y="970" as="sourcePoint" />
            <mxPoint x="403.11" y="970" as="targetPoint" />
          </mxGeometry>
        </mxCell>
        <mxCell id="SVLck4oqUuRZuGiBwl6L-12" value="" style="ellipse;whiteSpace=wrap;html=1;aspect=fixed;fillColor=#dae8fc;strokeColor=#6c8ebf;" vertex="1" parent="1">
          <mxGeometry x="403.11" y="960" width="20" height="20" as="geometry" />
        </mxCell>
        <mxCell id="SVLck4oqUuRZuGiBwl6L-13" value="&lt;b&gt;Commit&lt;/b&gt;" style="text;strokeColor=none;align=center;fillColor=none;html=1;verticalAlign=middle;whiteSpace=wrap;rounded=0;" vertex="1" parent="1">
          <mxGeometry x="260" y="997" width="60" height="30" as="geometry" />
        </mxCell>
        <mxCell id="SVLck4oqUuRZuGiBwl6L-16" value="&lt;b&gt;Commit&lt;/b&gt;" style="text;strokeColor=none;align=center;fillColor=none;html=1;verticalAlign=middle;whiteSpace=wrap;rounded=0;" vertex="1" parent="1">
          <mxGeometry x="380" y="997" width="60" height="30" as="geometry" />
        </mxCell>
        <mxCell id="SVLck4oqUuRZuGiBwl6L-17" value="&lt;div&gt;&lt;b&gt;Initial&lt;/b&gt;&lt;/div&gt;&lt;div&gt;&lt;b&gt;Commit&lt;/b&gt;&lt;/div&gt;" style="text;strokeColor=none;align=center;fillColor=none;html=1;verticalAlign=middle;whiteSpace=wrap;rounded=0;" vertex="1" parent="1">
          <mxGeometry x="130" y="997" width="60" height="63" as="geometry" />
        </mxCell>
        <mxCell id="SVLck4oqUuRZuGiBwl6L-18" value="&lt;b&gt;Branch&lt;/b&gt;" style="text;strokeColor=none;align=center;fillColor=none;html=1;verticalAlign=middle;whiteSpace=wrap;rounded=0;" vertex="1" parent="1">
          <mxGeometry x="70" y="960" width="60" height="30" as="geometry" />
        </mxCell>
        <mxCell id="SVLck4oqUuRZuGiBwl6L-19" value="&lt;b&gt;repo_name / Branch / Description&lt;br&gt;&lt;/b&gt;" style="rounded=1;whiteSpace=wrap;html=1;" vertex="1" parent="1">
          <mxGeometry x="220" y="660" width="250" height="60" as="geometry" />
        </mxCell>
        <mxCell id="SVLck4oqUuRZuGiBwl6L-20" value="" style="shape=image;verticalLabelPosition=bottom;labelBackgroundColor=default;verticalAlign=top;aspect=fixed;imageAspect=0;image=data:image/png,iVBORw0KGgoAAAANSUhEUgAAAlkAAAGfCAYAAABsocdzAAAgAElEQVR4Xuy9C5hVxZX3vbobGrohQkBuo9DcoxDUiQa5DNJ0XjEOoCj4ZMQQE7wLyRchOpNkHpzknZiJBmdeH9DEKIkhODFCREQdcASUoEB0RkJA5CI0EKHlokRpLn37atXe+5yq2rVvp083p0//d5482GdX1a761eX891qr6hQ0iItwgQAIgAAIgAAIgAAIZJVAAURWVnmiMBAAARAAARAAARCQBCCyMBBAAARAAARAAARAoAkIQGQ1AVQUCQIgAAIgAAIgAAIQWRgDIAACIAACIAACINAEBCCymgAqigQBEAABEAABEAABiCyMARAAARAAARAAARBoAgIQWU0AFUWCAAiAAAiAAAiAAEQWxgAIgAAIgAAIgAAINAEBiKxQqO/Rwn9cQf9Dg+jWn1xDl2TSAR+upx89vIF6fXUOzfh8JgUgDwjEI3Do1V/Sv75yLJW415U30/e/dG68zNlMxWN+3g76wpxv0NXds1lwvpTlrisFRF/wrQtZWHPyBRPaAQJ5QAAiK6wT/7ycZr0iFkLaSXRlXJF0hF7+96fofy5yv+AgsvJgmuR+E955eh49sVl9GXiPXn61K1191kWWMR9yH2Uz1DAtsuiiiTR/2udSz0wJ5YZGvNg1QwvwCBAAgXgEILJCOPEX14s9bqZb6AX616pR2mIYnA0iK97QQ6qsEchpyxFElr+fHZF1sGcXOnioq2Ild1gd7DGI/mczZW49z9rAQkEgAAKNJQCRFUiQF8I3qBe7PIjdH0dpgucyZAvXb8Tfs113SOrvSUSLn6IXq9xCe4ygf76J6El2F145gg6+soEO8i317VXmFZYy90q5eNwyv3ARiQVXXYgb2+XIn28EpPXjT4Ppn+8ZTT1tjQsaY+R82dP0iUSLhFtcuK/k2LzovfSYTI3VBGlTos8yH4LqmG+dEtoeV2SNH0G9Vm0Q/F0rueR2lP5+ulgzFikiS+2/lIXLEWTeWuOsG2T57KgT8sB9yxevSW4fqO7lXhcNItp8NO3itT6zVXUSGgsCWSEAkRWEUboKu7oLkvuG6bkMA0UWiy67Jeugt7ipeVm8qfFaqmuRHPF11uJqsjK8UEhzEAgVWaa7WvvbiP/xvlg9YaWN8wRp5UuJF5MFS5Z/DHgi62aaUPUUPUGOy1D2I1vMWeR6IssVXt4LnnQLi/T/3OMNn7COFNtq33fX1x5HcJHz4mi8VHrPVN2azTGu8QwQyAcCEFkBvSgXlj8ZN61fPiKN9mUU4S5UFrq/rzItEEpesYhq1rJ8GG1oQ5MQCPty9d9Tx6dj5dAtKUrAuuaG9CxZqtUlIC1EVkQ/p0XW94e951ivfjKKDrGrkF/k+AXLFVk9jc0MKWvUlUfpX9kCrsZueSLZiOcy1zIOtvetPUpf/+0WfQOFaQFrkkGMQkEgTwlAZFk7VnEVeruj1DfKDCxZqd2FEFl5OpXOYrPM8ahUBSLrLPZL4KMVkeW6+P6HlPgs7k9VZIW4gj0BpVq81c9kPOkqL9wgLZQjRVaY+zkXkaJOIJCjBCCybB2jLHLpYxuUN3nD1O4sal3cGK34lqwZRjmkWg4+NOK+cnQAoVq5QMCNzzlk2V3IlhLTJZ1y5SWwTnVPkBaWrPiWLLH704uN0uIxPXeha51KHfUg1oiXPxxNVyvHwdjced5nt9IKeqLKjcNSy3LDEbxyNXehXHt2po+XsDwzF0Y96gACLYEARJall4JiENTPVRP8F0TQ6P/8KR0InwooVQPfvfNwzBgZIyg5tZiGWCdawsBCHZufgM0tJM9mCxpjqcD3GC7AjEUWpUSEGnTd/HRy6YmqJUucY2buDjVe8vTzz5yXOc2l57oHNdei5zJ01xtnw80g+sJm4WJ0A+3V8WIGvtueiTPPcmkMoS4thQBEVkvpKdQTBEAABJqKQE4fA9JUjUa5IND0BCCymp4xngACIAACOUZAPazWdTdT+niHHKssqgMCLZYARFaL7TpUHARAAAQyJaCcOs9F4IT5TEEiHwiEEoDIwgABARAAARAAARAAgSYgAJHVBFBRJAiAAAiAAAiAAAhAZGEMgAAIgAAIgAAIgEATEIDIagKoKBIEQAAEQAAEQAAEILIwBkAABEAABEAABECgCQhAZDUBVBQJAiAAAiAAAiAAAhBZGAMgAAIgAAIgAAIg0AQEILKaACqKBAEQAAEQAAEQAAGILIwBEAABEAABEAABEGgCAq1GZB05erwJ8KFIEAABEAABEAABELATaFaR9emJk3TmTA01NDQk6o+CggIqLm5LHTuUJMqnJi794WraN/PSjPMjIwiAAAiAAAiAAAgkIdBsIosF1unTZ5LUzZe2XbvijIUWiyy+ILQa1QXIDAIgAAIgAAIgEJNAs4msYx/9NbEFy2wDW7S6fPacmE3Tk0FkZYQNmUAABEAABEAABDIk0Gwi6+ix7MREde3SKaOmQmRlhA2ZQAAEQAAEQAAEMiQAkZUhOGQDARAAARAAARAAgTACEFkYHyAAAiAAAiAAAiDQBAQgspoAKooEARAAARAAARAAAYgsjAEQAAEQAAEQAAEQaAICEFkZQD3+yadUue8gfVB1lD7+66d08tRpWUpJ+3bU+ZyO9Dc9ulJZn17U6TMdMygdWUAABEAABEAABPKBAERWgl5kcfXOlp20u/KAOI6CiI+U4Ku+vl7+W1hYKD7jvxvkvwPKzqdLhg2C2ErAGElBAARAAARAIF8IQGTF7Mn3du+jN/64RZ71xf9ngVVTW0sF4n8lJe1kKdUnTxEJ8dW2bZtUGk436ovD6HMD+sR8EpKBAAiAAAiAAAjkAwGIrBi9+KetO+mtP70nU6YEVk0t9erZlUZ/8SLqfV53ea/ywCFaL4RYVdUxTWjxvcsu+hxdNHRQjKchCQiAAAiAAAiAQD4QgMiK6EW2YK3f9CctVY0QWD26d6GbpoyXcVjqdUr8dNDipavokIjXYouWeo0efhEsWvkwa9AGEAABEAABEIhBwCeyPqk5RSsOvEOvVb1LO44fkkUM7tSTxva4kCaefwl9pm37GMX6k7TEE985Buv3L77m+zkgFllTJpbTBYPKqLa2joqKCmWD6+rqqU2bItrx/n5asny1/G8RuZWCwa7D6yeMRYxWRiMImUAABEAABECgZRHQRNbbR/fQDzcvo4MnP7a2oldJZ5p78WS6tGu/xK1siSLrtTf+VwS5/0Vra50Icm9f3JZuv3kylQorFgfAFxZ6AfBOwPvJU2fo5089R2zVKipioZW+BpSdR2NH/W1ifjLD/uX01ZuepUH/tojuH5UuooHepv97xSaqeP0u+rvMSs5uLlHP6f9C9KMnr6FsRKL94cfT6c7/SlexoGEUPRanrW88Rp//p/30j4sfoOm9s9vE/CrtJD25eBvtHH4p/VtGHu3G5k9A8+hf6LrfHhIj3rku/eIQem54SYICkDQJgeZdWz6gRbf+I/1kJ9ElV/8tvfPSkezO3SyvS0k4Im3rJZASWSyw7trwq1gkHhvx9cRCq6WJLLZiLV2x1sejrq6O2rcrpjtuvk64Cot1kcUB8SJHtTjS4fGnltGpMzVUJHYcmhdbwTI53oHFxqs0ip6l4fTn716aKrZ5F8IYQyTLixm3+2d9f0K/ufFv5MOl6Np1A72UJREXo0UtJIkjdn7wcWf69cwBVB671nFFkle+KXCi8+/dtJWu+KPYGKJcyQXSMfqn+XuIrjLEoCG8Uo/4bE96fdp51Fd+4OR92jUsm89e+19v09d2pyuXvG6xYTd/Qn7ZeE1fM+JWojnXln3/+T36+71TtLUtbj1jpcvyuhTrmUjU6glIkcUuwq+ueyzQgmVSYovWb8bclch12NJElhrsrre/QboIp15TQYP799bdhcLK1UZYrt7bVUlLXljri8nyyskkCN5b7MatG05rxuhWq+ZcCGPNmCwvZqbIIv7SePI8iCy1M3bupj6rTtH9X2xPP/gjZV9kuULmc+Nt1q54Iuse6t84qxPX4T9P0f83K1pAStFE/Wjfl7tISvz3fw1w6y7L+Zgm3jiUbulqG9EBYi7W4M/BRC1IZH2PZqVeprJOMsvrUtbrhwLzkoAUWU/veZP+Y5vijxFN/faQL9Ok8/9WCqkV+/+X5m17mU7UOodu8sX3p/UbGRtKSxNZ/7VmA31w6IjWPvXohl49zqVp118prVrq5QS+rxSB7/4dhl66v+l5Ln153IjY7GRCZaE0RYcpspy//4N+57613/Bjx70o3xT/e0RKnGhvjlz+d99w6tTQWzHTCxP+LfOp4V+m0N6bnDJNd53veXfeQLv+O+0uDKoPkVM23TKCVv7Ts7RZWOlsbkC9vY5LYeWX0patoPJ94jOijb56NIKJbJvr+pBMBzal5Y1Fzgc04CYhPqTYsoss3VqjWrs8kTSEBm1iSxhXuD3d/w9pEcJ5/1+XINdcdH62ZEWJLK1+mhXKnSqxRRaLpIM0KFBEOfVdMSjY1Rje3mRT15Y67px4h+fwl79NW75LqTmtzj/95cud88r8lXP8Z/tTVeC14Euv6Zbh1PpieXGJKt8pOHish645qVoZ+cXnN/z421TwT87LZJ+QdSuYI5+mY6yDxrrU+F5ECSAQTUCKrDveXEj/e6wyldomoFho/fBPy1Jp/rZLGf185IzoJ3jr47Hj9rTH36Eff3cxrWt7Bc3/f5PEu664bJ+5ubt26RT7mWrC0h+uln/um5l2s4UV9Ntl/+2ce6Vcnsjif8/U1FDP7nyEwzDqc34PkaqA9n/wodiJuJkOip2FxW3byrO0vDxaXUra0z9M/j+J2iFdhWPdWCzDkqOLCV2EOPeWUj83LilVTm89buoP/7mc+tzoxlBp5TvlPbgjLYCku46+7Zr1/aJHd+eF1cddXBvCBYgZk6ULluDyv9pbj1WLauNPjHpEpY9i8pMBHiO/wE3U+UkSB4gsFjk/++zQVMyVFDTHPHda2g04zbNUaeW4omU4W8m8eE1VhEXlJ4oSWTbLk2eJsrkaHSR2t6hMf6xXyorlxxdhqYot5pJ0jJo2/pzo7QkFSr/4qC9HnpB4Vn1BEfN32D9R+oXFtGSZ912R9P4MPdaTaxxdvjuHQ8Z60Jpj0uN2eZYs8wXJXkY0R/VlDGEGmY5X5GsMASmyxq18QLNSvTr+uz5XILsUv7Tqx6lndWzTnlZfJV6vYl5WS5Yrpl47Vk+FPcodkWX7THlGc4msX/72RW1XoSeWasUBpO2Ki+XOwTNilyG/aJYI0cSX/HkdIcD46IYa4VI8Laxa6sGkXjNYfH3jHybEJCeSsZn7pr/QHW6wtymctAXJ4krTLEGuyXz8wA1EX7UHhPtEG1ub/kVJq5rdjbrJRqn3Q+tDUsDZFncVjs1dmPoSCSl/0Y0HAzcE2IRpWD0azcSz2qkc44+A+ClDLFlaIZzuj+3dmCWbu0+1BrnxTAPT7jfSnhOV3xFZWkyWL17KsDzZhE4s8RNlxXJch2mBmaaiWtKaNCYrak4Y800VH+b8ckRY+iXKaY0jPlLj2ecuNO7b5rCLxVxrfOXzy5qyNqXuq22IseZwvjCR5a0p2roVxvHv3vLXC+7C+OsIUmaNgFVkbZrwA98DTJHVoU07WnPV92JXxCeyjm+kf/nOEtrwCQus0fTTh66nISctn+neODpbIosbykc38LENFWMuledjsVhikaX+rI7YbCjFGVvBVq97W8Rn7fPFZiUVWabJPwVduBE4AN4nsjy3n9I7l9yZdq/5Fm1XGPHORemeEFfaJeG69IJEli0+yhRZgfURIssUcJYR5RNZ6pcIKW5Oo70+keXuzozVxmwzOdsiyxYcnhI6USLJJlzUz6Ly+ztVEzpBgeuGy5JiiCwp5nZ1VgLe9Wc7Yo80V6htETMta7EXujgJVTe0b47650S0yPLvLNbmjCUmS7WGWdcDTWSFlF/2vCU+0r9mhD3DQxAqsgwRJvOEcbTVCyIrzuhEmiwTsLoLH7r0H2hszwu1Rz2+cw09sWNt6rPGuQt3089m/oyWHVUEVrHtM39rm0tkme5CFlJsvbrja5PpMx1LY3XDJyeqxVEOy2RwPP+uoXeVJnIXGm+dXiGKyX+0eoRDRFC4FGS3bKKGgv3U/37XOmW4DxJZbXyuB3fx8+I7QutjEXCZiKyAIHhTfKoulMg2ZpvJWRVZlhikDCxZ+q6+xoks3RIWbX2SwyJSZIW7AeMKLPksjU+s6R4/UcI5ES2yklqyPDfgJnI20pj5002JtGSJlxzNNSmz6vPauuZYaIWJrKB1K3ADTNS6FL+3kBIEGkXAGvjOrsD7L76OvtC1ryz8t3s30C92rNEe1LjAd0VQ9fwi/d8f/ANd2sn22dkTWWbgOx/dwNaru75xvYi3Sv82oY2+51pkd+Jjv/y9dCOq52UlCnwPNOWnxdfcUenYI0dw/QftuCttuUrXURFsakyWsejzYjfhsd5uTEe4JcuLGUk/T4+z8t9XiWUmstT6hbU3zI0a2cZGMOnjBQKbcSpNuT3dw2p1F5riw3X/ddFjstRzsqwxUqkYLtf9l7IY+S1Z4ZYgN4ZLnLen7v5TdwNaV7UIkRVqxfJ2XyrB/MErp79+jVpljcxenFPgHE3sLhQB71eHxP8F7C4MOhJGrW4qeDyw/ICYrNRYD1hzEoksexlha4ufcbz4z2z2M8oCASaQOsLhpnWP0qGTAcHpBqueJZ1o8Zi7G3eEg+ou9IQWKe7ClPjSH95clizzCAe2ZLUTh5CyyOIdhfy3dBfy6aPK5f2ANFuueKchi6zT4rws1ZKV5AgHPchcZ+GZ/J2dR2mTvrmrxnP9kRaw7p43JQPYe2k74S4Ru3AGP/YX93DTCHchV0l1w/HOpn8bQaueDN5dGOqKtMzLqMNIg9qrWfiMHVCRbUya3nBFmHVq2t2FbpyRcs6Tg1EJDJciQwlaH9+ZVgi32b/Lc6T0869k1gFK/JX8wEijxVRF5fff98c8RZUhqhAmskKPmNDPyEoPMY9PnPpl9wsjaMz+ncXiGW3JEnP/34judN3yYbt/vZ3GsjWuu037zGhm6kUlZvkyu7KT1ly/otYzW+B78LrlhUqkd1JrbY9Yl7LboygNBOwEzu5hpDkc+G4eRmoTWapwUvFy2jCRlelhpBjEyQiYO5SS5UZqEMh9Ao0a4xGhBbnfetQQBHKfgO9ndX6w+blAixZbsNiNmNWf1cnRIxy469Sf1fHchXd+/Tpp0VIvz5rFViz1YgvWz371nOYubNTP6uT+eMqpGjb5CdI51VpUpjUSyFxk+Y9eaY380GYQaGoC1h+IfuHA/9Jrh96lP398QO6UG/bZ3jIQ3jucNJNKtbTDSLmN6g9Ee5asmbdMlTFZtSJGq7CgUP5WoXqxzmpoqJcxWCyyFjy5VJ6pxZYt/EB0JiMneR5vN2bs3zhM/gjkAIGcIJCJyEq5393dyTnREFQCBPKUgE9kqe38xc614niABrp90LhGN78liixu9Hu794kDRv8k289nZI0efhFdMfISXyyWCYjF6boNm+kPGzeLXYlt5G3O+7kB2fjJ5EZ3BwoAARAAARAAARBoYgIQWTEAe0HwLJz4OIbe5/UQ52X1oV7ixPeO4jgHPpKBDyHlQPePjn9Ch498TNt3VtK+D6rkbxmyBStJsHuMKiEJCIAACIAACIBAjhOAyIrZQWzReuOPW6T7lI9mqK8Tuw3btZVnZxW5Z2DV1TeIk95r6Yy7m5DdiiywRomf3oEFKyZoJAMBEAABEACBPCEAkZWgIzlG650tO+n9fX8RuQrkMQ5OrLsX8F4gYq+8Yx0aqH+f8+iSYYOo02c6JngKkoIACIAACIAACOQDAYisDHqRxVblvoP0wYdH6ePjnzq/WSguPqy0c6eO9DfCjVjWpxfEVQZskQUEQAAEQAAE8oUARFa+9CTaAQIgAAIgAAIgkFMEILJyqjtQGRAAARAAARAAgXwhAJGVLz2JdoAACIAACIAACOQUAYisnOoOVAYEQAAEQAAEQCBfCEBk5UtPoh0gAAIgAAIgAAI5RaDZRNaxj/4qz5hqzMVnTnX57DkZFVH6w9Uy376Zl2aUH5lAAARAAARAAARAIAmBZhNZn544SafFieiNudq1K6aOHUoyKgIiKyNsyAQCIAACIAACIJAhgWYTWVw/Flp8GnpSixZbsIqL22YssDw2R44eF3WozhAVsoEACIBAMIGOHUqBBwRAAAQ0As0qssAeBEAABEAABEAABFoLAYis1tLTaCcIgAAIgAAIgECzEoDIalbceBgIgAAIgAAIgEBrIQCR1Vp6Gu0EARAAARAAARBoVgIQWc2KGw8DARAAARAAARBoLQQgslpLT6OdIAACIAACIAACzUoAIqtZceNhIAACIAACIAACrYUARFYGPX3s47/Sjl37qPJAFR396DidqD4lS+lQ2p66frYTlZ3fgwYP7ENdOmd2On0GVUIWEAABEAABEACBHCMAkZWgQ1hcvbFpC23bsUccqErEh6TyVV9fL/8tLCwUn/HfDfLfIYP70ajhwyC2EjBGUhAAARAAARDIFwIQWTF7cvPWXbRq7SZ5Wj3/nwVWTW0tFYj/lZS0k6VUnxQWLSG+2rZtk0rD6caXD6eLhw6M+SQkAwEQAAEQAAEQyAcCEFkxenHDW3+m1zdslilTAqumlnr17Eqjv3gR9T6vu7xXeeAQrf/jFqqqOqYJLb53xYiLacRln4/xNCQBARAAARAAARDIBwIQWRG9yBaslWs2aqlqhMDq0b0L3TRlPJW0d6xY3nVK/Aj24qWr6FDVUSm01OuqcZfDopUPswZtAAEQAAEQAIEYBCCyQiBxDNaTi1f4ftCaRdaUieV0waAyqq2to6KiQllKXV09tWlTRDve309Llq+W/y0it1JPYNfhLTdNRIxWjIGJJCAAAiAAAiDQ0glAZIX04IpV60WQ+14tRZ0Icm9f3JZuv3kylQorFgfAFxZ6AfBOwPvJU2fo5089R2zVKipioZW+hgzuSxPHj85s3Ox9liZOWEQXLlhOD5WrRWyg+4aupy9vnUMVmZWc3VyinpO+Q/TIkhuoXxZKXv39a2ja8+mCChrG0uI4bV07j3rOrKQfvvgI3d43CxXJpyK2bqHS10ppy90DaEA+tavVt+UAPT71QaKfYsw3z1BoQbyzvC43D9+W/xSIrIA+ZCvWE795wXe3rq6O2rcrpjtuvk64Cot1kcUB8SJH9anT9PhTy+jUmRoqEjsOzevWr07KyJrFYuNlGkuLaDQd+tEIpdj8F1kPD3iUVsw4X7ZZiq73ptObWRJxLX8aZ9ACn8j6lOY/uonuO+KWdeFQqr6hh1JwFc36wVZa6BpmL79iOK0p7xh4n6iUHrxzBM1ywhXFFZU/vA27126gYa9Xa4n8dQguI3b+D3fTuMcqaWO3shYqQFvQl34Gwzb3srQg3hBZZ2X4QGQFYFeD3fUkDdJFOPWaChrcv7fuLhRWrjbCcvXerkpa8sJaX0yWV05mQfCOkLpq62ha6bNatS6RRWyhmt8HIqsxS4YmshyBtXSIJ5zMv4lW/W41LR9aQfOHiodKIXKYptzliSh/eilqtnVLCZXw/NEN4fJupc8bwi46n5ciXn6nHdu7daOFh1uqla8FfenH774cTtmCeENknZVxFCiy5m17mV7c/46s1I39R9Jtg8rPSgXP1kOfef5Vqtx/SHu8enRDrx7n0rTrr5RWLfVyAt9XisB3/w5DL11Z7570lWu/lKxpLCxecSxYbMlRLTtEpsjivx+gX7tWh+nzHffinoXfopEvjUmJE/n37mmOVYzLn/WaU6eGvoqLzVtEptGuCU6Zfned8bzZ02n7S6q70F4fIrfsWWNo+cxF9Law0tncgHp7RZ4b7qblV6ctW077/e31cYlqo1mPqPQ/DWPi1HPuu243X9AMljcWTksPp8aVaelhoTN5uzLsznWtNVI0VdN37x9G473boe5EU1Q5Viqa6oowLsNWZurRflHGt7T6eXVz88QSSSHtj5M/JQzHVtOwJnSlmvPXnJdyLrpzXc6RwHHknz+/2foV2q26C90xfNlsb76EzdWg+RhWB8sLnlZ/9eXQnaPa+mIugzHWm6h56c7jt3j9u/Z7Yn2j1PoQuXa5a6V9cdY5cFlp3iFrQVR9Q9eRTNdWbkFU3mRfQUidGQGryGKB9cyeDVqJtw4up9sHjcvsKS0w16O//D19euKkVWSx2DpTU0M9u/MRDsOojzjhnQPc93/wIa3ftJkOip2FxW3byrO0PGGmFtSxQwnd/Y3rE1GRrsIr3VgsnyVHXehMEcL3nqaBblxSqpy+etzU6oXPUr8ZbgyVVr5T3v3b0gJIuuuIFy92WfpFj+7OC6uPu2g1hAsQMyaLNMESVr7+BRDVxrlGPaLSRzGZO9hj5Be4iTo/TmIpME4YLrp0RilgChQXoCqiZF6iZXMVkRUqkvyiynHHkft85/7WsaZL0auPP79ZP/PvSJEU0f7I/Kp17nATx6uZIkqIouVURrOXODGV6bnuzo/AcWSbP4plhcQcn7COJqViEs25YuYPKI9FXmAd4oisB0SIg/ICJdrfayYFxFVGrTeCT8RalZ7Hrsig9Euj9mLpW7v0tVKfdra+eJbenzGSdoeuj9H1jVpH0i+U9v5K31frH7Uux1lUkCYbBKwia9zKB+hE7Wmt/F4lnen5inuy8cwWUcZDC57WdhV6YqlWHEDarrhY7hw8I3YZ8stSSUl72aaTIhaLg7T46IYa4VI8Laxa6sGkXsNZfN07c1p8DmzmnbCP7kkFe5uLgbLQWVxp2puzazKe9Ll1RLcFBccaos0MpFXNzr66iWap90PrQ1LA7ZxpBvLraHyWO3WRDi3/QMiGAL8wDa9HI5l4VrsmCkhmUfLj7mGiZg9dkHLvCb6apcoUPV58VjddeLndIgXQEUvMko2iMiQAACAASURBVGJJmjFFsWoZI92fn59v1M8Qeb6YKsPSFd5+okT5m3xTgDKWeDPL471pdsED7kuUfk+f9wxSdU85X6T6uE1bo16YqQosd15q64gxV13RoZVnm99aHeKIrPRLnjMUbPX2BonF/Rbq5gqflyyqvkn3peI5469NTvxn6goUhtmtr1a/xqytFW8a3xlmX8f/+kHKxhGILbJ6lnSi5RWzG/e0FpTbFFlcdT66gY9tqBhzqTwfi8USiyz1Z3XEZkMpzvj099Xr3hbxWft8sVlJRZZ8+3p4r5+eNIWzNckQWZ7bT8mRdhc4VhVt4eF07s5FaWIXV9qsHrGI2OKjTJEVWB8hsmLshPK7R5VFmhQ3p6+9hshK0sZsM2lSkeXGEo0NEDZx3IFewLfsfxG0PqUbLV1iuBDFHd1ilQbuuPo8UeYGuQ8xg+cD8mvPVoe5GTxvPC8l9CLab1l3NKFniqomF1np8Xv3++5c7P8MTXz/K7SCvxy9nbnW2ENDZPnmT9qlpc55iSBqrtrGaGQd4ogs/85n/5z2OimGaEkwjyNFVsRamRo6gXGg2a1vlAj03Q+qvxhPvrhVxGSdFQViFVmP71xDT+xYq1WotbsLWUix9eqOr02mz3QsjdVZn5yoFkc5LJPB8fy7ht6VzF0Y8NanvVmFW7L0yoq0U9eLX/+ppEGeVcX3lpbAamN7w1MXpNAgdcsCZSEbKbICg+B1LrqLIqKN2WbSDCIrHbhuQLSILDMw3Yedhca27toOwyCB5Q+EF6X5guODBZqz89CwZEXNMM3FaY/xCi1CyU9mrJqSMcwiF1XFsPvel//s3Q/SLrYos2tPiKt7/n4dPexZXqzWkxgiSwovJ0Zo2xwldtE2F83QAFO0RdYhjsjKoiUr4byMFFlxN9BkKrIS1jdSZMVdW6PW5cYMXuRNRCAw8J2F1m/3vCmtMjf2H9Wq4rGYoBn4zkc3sPXqLhFLVaz8NqGNtudaZHfiYyK2i92I6nlZiQLfreZ6fqoqvtSFzolD0BbXVCWVPGpMlrGA8MI0al6ZGzMR9aZmPs+MG4ioTwaWLL1+YeUHi8/INjaKSUAsjbfJINEUjZfYEUAdrO49IkOEeG49w+WWepItRis05skSg2WWkTRmLLTZrjuzW9pSFt5+szB/fi1Fk1uyxNPYGnPvOmExHuOeJ+fMs+XCknjNQ54bP2oc2V5S1M/MuRE1VwPKs8VkpcayGftj1tmNi5ocNz4xmeU8ah6Hiiw3MNy+Vppjxr/O7BGxYTImKyycolHrSFR/Ra196veAuS7HW1eQqvEEcIRDAEPzCAe2ZLUTh5CyyOIdhfy3dBfy6aPK5f2ANFuueKchi6zT4rws1ZKV5AgHPchcr2w6iJN3z6gmeXdhM1x/pAWsu+dNyQD287UdTJeJ3YFD5u1zDzeNElnuF4Y4JFW6Gnnn0IIx9ML84N2Foa5IS39EH0Zqb2+Ftusy7UbhR0S20djVFZneZ4rX66QH6zd+4tpKMOOOtN2FqkuOxZWxgy5sZ595xlX62UrMls/lp7r69DOyrPldIZg6p4sTpc7qMs7wErdsZ2QFtz9efk1kNuHuQuc5pjgJ2hwRNo6iRJYyNy90N5eorjbfXA2yLEeMZbPMOWU0d7d3lp/7orOAaJrr2go/TDhqvUk2j8NFFvdD0Nphm2E2DiPplTCR1dh1JLS/Iuofmbdp1iGUqhOAyAoYEeZhpDaRpQontRhOGyayMj2MFIM3KQGLKyNpEUgPAvlMQNvp2BQNxRzMKtUm76+s1haFCQIQWSHDQP1ZHc9deOfXr5MWLfXyrFlsxVIvtmD97FfPae7CRv2sDoZsIgL6du1EWZEYBFoBAccy0+D7ma5sNh0iK3s0m6O/sldblOQQgMgKGQnqD0R7lqyZt0yVMVm1IkarsKBQ/laherHOamiolzFYLLIWPLlUnqnFli38QHTzTDtvN2bs3zhsnmrhKSBwlgnorjaujHdQcdNVDCIrc7Zno78yry1y2glAZEWMjM1bd9HKNRtlKj4ja/Twi+iKkZf4YrHMYtiqtW7DZvrDxs1iV2IbefuqcZfTxUMHYiyCAAiAAAiAAAi0AgIQWTE62QuCZ+HExzH0Pq+HOC+rD/USJ753FMc5lPJhpOIeB7p/dPwTOnzkY9q+s5L2fVAlf8uQLVhJgt1jVAlJQAAEQAAEQAAEcpwARFbMDmKL1qq1m+SRFnw0Q32d2G3Yrq08O6vIPQOrrr5BnPReS2fc3YTsVmSBNb58OCxYMTkjGQiAAAiAAAjkCwGIrAQ9yTFab2zaQu/u3CtyFchjHJxYdy/gvUDEXnnHOjTQhYP60qjhw6hL53MSPAVJQQAEQAAEQAAE8oEARFYGvchia4f4uZzKv1TR0WPH6UT1KVlKh9L21LVLJyoT7sTBA/tAXGXAFllAAARAAARAIF8IQGTlS0+iHSAAAiAAAiAAAjlFACIrp7oDlQEBEAABEAABEMgXAhBZ+dKTaAcIgAAIgAAIgEBOEYDIyqnuQGVAAARAAARAAATyhQBEVr70JNoBAiAAAiAAAiCQUwQgsnKqO1AZEAABEAABEACBfCEAkZUvPYl2gAAIgAAIgAAI5BSBViey9u47mFMdgMqAAAiAAAiAAAjkJ4FWJ7LysxvRKhAAARAAARAAgVwjAJGVaz2C+oAACIAACIAACOQFAYisvOhGNAIEQAAEQAAEQCDXCEBk5VqPoD4gAAIgAAIgAAJ5QQAiKy+6EY0AARAAARAAARDINQIQWbnWI6gPCIAACIAACIBAXhCAyMqLbkQjQAAEQAAEQAAEco0ARFYGPXLs47/Sjl37qPJAFR396DidqD4lS+lQ2p66frYTlZ3fgwYP7ENdOp+TQenIAgIgAAIgAAIgkA8EILIS9CKLqzc2baFtO/ZQQwNRQUGBzF1fXy//LSwsFJ/x3w3y3yGD+9Go4cMgthIwRlIQAAEQAAEQyBcCEFkxe3Lz1l20au0mIa4a5P9ZYNXU1lKB+F9JSTtZSvVJYdES4qtt2zapNJxufPlwunjowJhPQjIQAAEQAAEQAIF8IACRFaMXN7z1Z3p9w2aZMiWwamqpV8+uNPqLF1Hv87rLe5UHDtH6P26hqqpjmtDie1eMuJhGXPb5GE9DEhAAARAAARAAgXwgAJEV0YtswVq5ZqOWqkYIrB7du9BNU8ZTSXvHiuVdp06focVLV9GhqqNSaKnXVeMuh0UrH2YN2gACIAACIAACMQhAZIVA4hisJxevkNYr9WKRNWViOV0wqIxqa+uoqKhQ3q6rq6c2bYpox/v7acny1fK/ReRWKiu7Dm+5aSJitGIMTCQBARAAARAAgZZOACIrpAdXrFovgtz3ainqRJB7++K2dPvNk6lUWLFYfxUWegHwTsD7yVNn6OdPPUds1SoqYqGVvoYM7ksTx4/ObNzsfZYmTlhEFy5YTg+Vq0VsoPuGrqcvb51DFZmVnN1cop6TvkP0yJIbqF8WSl79/Wto2vPpggoaxtLiOG1dO496zqykH774CN3eNwsVQRF5SuBTmv/oJto+toLmD83BJkbNp6j7YU2KyGvOPS7KNv9s6abPN9cpvSKc5+EBj9KKGedrN/Ys/BaN3D2NDv1ohPj8AD1+w900910lyQXT6c0Ya0ucOslnPays8WrZvH7Mei394Gu/59YpB8cIqpSzBCCyArqGrVhP/OYF3926ujpq366Y7rj5OuEqLNZFFgfEixzVp07T408to1NnaqhI7Dg0r1u/OikjaxYvGi/TWFpEo43Jnv8iS12M5eL5XryFNmdn3lmo2KrfrabJ290Hn1tGW+4eQANS9aiiWT/YSgtdw+vlVwynNeUdlVqG3P9wN417rJI2po22Tj7fM8RnXtpu4c8nKqUH7xxBs5xwR3mF1z8cqJZXJNXbB5EV9EJkE0KeMFFFVJBgCuuVJCJr50xPsLmia3C04AmvE6+ZD9CvLzTWESGs7qU54iX2AP1i6jM0YIn34uo8N12PszCB8cgWSQAiK6Db1GB3PUmDdBFOvaaCBvfvrbsLhZWrjbBcvberkpa8sNYXk+WVk1kQvCOkrto6mlb6rFatS2QRv2HO7xPrbbZFzsomqLQUGUc8YeOIivu6DaXqG3qkBMzyoa4lRwqhwzTlrrTI4fxh980qy+cVpMt37rtipls3Wni4VBF5zudLh6SF3e61G2jYtm6pNFH1T4bMEYw01bNcQWQlEVnMmoXWqHllKYty84ks8fCY8z+sTvJFjaKFmjau+LmvmC+4yUYeUrc+AoEia962l+nF/e9IIjf2H0m3DSpvVXSeef5Vqtx/SGuzenRDrx7n0rTrr5RWLfVyAt9XisB3/w5DL11Z7570lWu/lIynMsH9i4cpsty3NNey4L1xyjfQl8akxIlmlldN4w19FRebeIOb+iDRT6fRrgnizU+U6XcXGM+bPZ22v6S6C+31ka4ALnvWGFo+cxG9Lax0Njeg3l7njXL51aqbIah8g0tUG816RKUPZWK4OWK6OJINCiP11i1UuvRw6sO0tYZFxR66QBFNjkVJF1Lp0vyiR39S1H3L80QBKeE0tpqGvaaKLFP0iMSyftX03fuH0XiKV3/dWtWNls3lvPaL0/64uyfqPJE1nC54TYjPI5zHb0lrVN+YmQPHFidMOJ9iz7c4ZesVDRYqXMenaaDrim9RIotdpBPW0aSEYQS8Xn6T7vO5N7M6LlBY3hGwiiwWWM/s2aA19tbB5XT7oHF5ByCoQY/+8vf06YmTVpHFYutMTQ317M5HOAyjPuKEdw5w3//Bh7R+02Y6KHYWFrdtK8/S8oSZWlDHDiV09zeuT8RSugqvdE3mvjc5VUyYIsS/GMpy+upxU6sXPkv9ZrgxVFr5Tnn3b0sLIP0t0C96dHdeWH1cIdIQ7vrzxVZogiWsfF1kRbVxrlGPqPRRTOYqLg1T4Cbq/DiJpcA64XOxyazyHqVFh+LemzHFFodkET1aHcLvSzF1uF/KSiazqqLusKiPJrJcAfY6ufV3yt861hVBMerPz/z3biNSMVW65csAqAk4vuda9oS4SvEwnxmnDxKkiRpb6ktE+HwiSjrfgsv2NyBYPOnus0ziJm0xU6kapOKfTDedI0AbfHGp9rpbYzljWsL0EvV1NEFXI2krJ2AVWeNWPkAnak9raHqVdKbnK+5pNbgeWvC0tqvQE0u14gDSdsXFcufgGbHLkI1FJSXtJZeTIhaLg7T46IYa4VI8Laxa6sGkHjwWX/fOnBafpXzz2kf3pIK9zQmviAnLAqItlG6g66TPrSO6LSgg3BBt0pKlpFWDZX11E81S74fWh2LFOfgWelFmr5nkWL1Cyz8QsiHAL0zD4y0aycSz2qkc44+AyJS6ZcZIzoKBRc1Uoltl7BRbacSZbUvswd6hAkUUHX7fbsXS6ufVR4sJ88SgY4nTxF/C+ssCLM9QLV3RMVn2dkR2REYJlLEVNZ+i7ofNh4o3jXXEmKuWuicRWbYg9jAcSWKyUoHvmpU9HHZg3ZOKrMANRxl1NjK1MgKxRVbPkk60vGJ2q8FjiixuOB/dwMc2VIy5VJ6PxWKJRZb6szp82AMLMj79ffW6t0V81j5fbFZSkeXbAeP1QuptzxBZ6o4YN+1ls9PuNavZ211I3nJdjGmXoOcuDBBZtgXLFFmB9REiyxRwsRZ65e2WjB1AWnsNkZWkjVxOkvQRwjLlGm0SkRURU5RyI6ouMHseaYVKWZT8nRHrvhJLZRU8gQLIc/G5QfZD3JiuOPW3Bd/bAu/dJukxYzYWTSyygsZWnPlkxiPGnW/9n/HHMsbYXWgVT4bLrbnchUliqQLrZBOqAd9sZuxZq/kCREOzRsAqsh7fuYae2LFWe0hrdxeykGLr1R1fm0yf6VgaqwM+OVEtjnJYJoPj+XcNvSuZuzBgV4tqzZExHO4RDpFvaSLt1PXi138qaZD3ha+VxbVMYLXx5RXZ1TqE1sci4DIRWYFB8DqXlPVLPiOijdlm0qSWrIgYKVeADE0FeovmW2KyYgmoEAFGMnZKDSh3OtPc2ad2sbRYdbPEh6n1I2f3YnD9Le0PspZ5D9fuN7PIChtbMeaTPo4TzLeosmPNPSeRKXaaS2R58Wpx3YV265otrtPfeP0oiVhLPhKBgI9AYOA7C63f7nlTWmVu7D+qVcVjMSUz8J2PbmDr1V0ilqpY+W1C25jyXIvsTnxMxHaxG1E9LytR4HvgW5cqvlTB4MQsbJvjP3/GO3NGusXUmCxDCOlvbxGWLDdIN/08M84qoj4ZWLL0+oWVHyw+I9vYKCb+beZNvWA7AqlDYLC36eLz7f4Li+niQR51XyQxdwQGrrc+AWTEYKWel44jC6+/Ke5cS5jvmAivRubuSr/Isu+OzNI3SOjYMsdz1HyKuq/WOapsf/ts4ok/u2mZvkml+USWIyp9QjOBQJRJPUviZGOHoSjbOcLB3EyUpb5HMa2OAI5wCOhy8wgHtmS1E4eQssjiHYX8t3QX8umjyuX9gDRbrninIYus0+K8LNWSleQIhzDzePqLm4zYI313kuf6I2Pbcrrs87UD/y4Tu5WGzNvnHm4aJbKUBYtRcMzEgjH0wvzg3YWhrsiAxTL8MFJ7eytMa5VyqGFkG41DECPT+9wuep2oGXYXOkKrOkXQFnfk7JwT14Xq8Qr6GVjpLjDcd+Y5WKTs4LNZy4KWU5uVyefuM3f3pYPT/fX3RKC3s1LkndKNlopzJJ+QcV9GXpE8lI2PT7a/F/Sdp/rYijGfVFdjovkWo2yjqbbgdDX0wEseN51afJKYLDNeUg/2t/dPdJ0sB516IRiGO9d7QuyDkLM9ZFBeiyUAkRXQdeZhpDaRpQontRhOGyayMj2MtMWOsrNWcbyNnjX0eDAIgAAIgIA48sj8YT4Fyi92rhWxOw2tzlXoIVB/VsdzF9759eukRUu9PGuWiZItWD/71XOau7BRP6uDAZuIQFO76BJVBolBoNURMKy5XvuzZtVt6vJbXYehwU1AACIrBKr6A9GeJWvmLVNlTFatiNEqLCiUv1WoXvxbhg0N9TIGi0XWgieXyjO12LKFH4hughFsKdLbjQnTfvPwxlNAAARAAATsBCCyIkbG5q27aOWajTIVn5E1evhFdMXIS3yxWGYxbNVat2Ez/WHjZrErsY28fdW4y+nioQMxFkEABEAABEAABFoBAYisGJ3sBcGzcOLjGHqf10Ocl9WHeokT3zuK4xxK+TBScY8D3T86/gkdPvIxbd9ZSfs+qJK/ZcgWrCTB7jGqhCQgAAIgAAIgAAI5TgAiK2YHsUVr1dpN8kgLPpqhvk7sNmzXVp6dVeSegVVX3yBOeq+lM+5uQnYrssAaXz4cFqyYnJEMBEAABEAABPKFAERWgp7kGK03Nm2hd3fuFbkK5DEOHIMlzFhuKQUi9so71qGBLhzUl0YNH0ZdOp+T4ClICgIgAAIgAAIgkA8EILIy6EUWWzvEz+VU/qWKjh47TieqT8lSOpS2p65dOlGZcCcOHtgH4ioDtsgCAiAAAiAAAvlCACIrX3oS7QABEAABEAABEMgpAhBZOdUdqAwIgAAIgAAIgEC+EIDIypeeRDtAAARAAARAAARyigBEVk51ByoDAiAAAiAAAiCQLwQgsvKlJ9EOEAABEAABEACBnCIAkZVT3YHKgAAIgAAIgAAI5AsBiKx86Um0AwRAAARAAARAIKcItDqRtXffwZzqAFQGBEAABEAABEAgPwm0OpGVn92IVoEACIAACIAACOQaAYisXOsR1AcEQAAEQAAEQCAvCEBk5UU3ohEgAAIgAAIgAAK5RgAiK9d6BPUBARAAARAAARDICwIQWXnRjWgECIAACIAACIBArhGAyMq1HkF9QAAEQAAEQAAE8oIARFZedCMaAQIgAAIgAAIgkGsEILIy6JFjH/+VduzaR5UHqujoR8fpRPUpWUqH0vbU9bOdqOz8HjR4YB/q0vmcDEpHFhAAARAAARAAgXwgAJGVoBdZXL2xaQtt27GHGhqICgoKZO76+nr5b2FhofiM/26Q/w4Z3I9GDR8GsZWAMZKCAAiAAAiAQL4QgMiK2ZObt+6iVWs3CXHVIP/PAqumtpYKxP9KStrJUqpPCouWEF9t27ZJpeF048uH08VDB8Z8EpKBAAiAAAiAAAjkAwGIrBi9uOGtP9PrGzbLlCmBVVNLvXp2pdFfvIh6n9dd3qs8cIjW/3ELVVUd04QW37tixMU04rLPx3gakoAACIAACIAACOQDAYisiF5kC9bKNRu1VDVCYPXo3oVumjKeSto7VizvOnX6DC1euooOVR2VQku9rhp3OSxa+TBr0AYQAAEQAAEQiEEAIisEEsdgPbl4hbReqReLrCkTy+mCQWVUW1tHRUWF8nZdXT21aVNEO97fT0uWr5b/LSK3UlnZdXjLTRMRoxVjYCIJCIAACIAACLR0AhBZIT24YtV6EeS+V0tRJ4Lc2xe3pdtvnkylworF+quw0AuAdwLeT546Qz9/6jliq1ZREQut9DVkcF+aOH50ZuNm77M0ccIiunDBcnqoXC1iA903dD19eescqsis5OzmEvWc9B2iR5bcQP2yUPLq719D055PF1TQMJYWx2nr2nnUc2Yl/fDFR+j2vlmoCIoIIPApzX90E20fW0HzhwJSfhBo6jWlqcvPj15AK1o+AYisgD5kK9YTv3nBd7euro7atyumO26+TrgKi3WRxQHxIkf1qdP0+FPL6NSZGioSOw7N69avTsrImsVi42UaS4toNB360Qil2BxbsJpAZD084FFaMeN82WYput6bTm9mScS1/GkcrwWrfreaJm93055bRlvuHkADUlmraNYPttJC1/B6+RXDaU15x3gFUxyRpZdPVEoP3jmCZjnhjO7llHPfkW60bO4wGq89PSp/svv+9kXlj4kibjJ+AXjFnMchmZOmj6pHZHlNvaY0dflRAHAfBJqHAERWAGc12F1P0iBdhFOvqaDB/Xvr7kJh5WojLFfv7aqkJS+s9cVkeeVkFgTvLEpXbR1NK31WqxxbsJpYZBF/QczvA5GVYI2QAuuIJ6xcMdNtKFXf0EOWwveXD3UtUR/upnGPHaYpd5kiKOiBUSLLub90SFq47V67gYZt65YWelu3UOnSE/TgFR3ovtfJEFlR+aPuR7UvOn8C1PGSRooco5ik6aNqEVleU68pTV1+FADcB4HmIRAosuZte5le3P+OrMWN/UfSbYPKm6dGOfKUZ55/lSr3H9Jqox7d0KvHuTTt+iulVUu9nMD3lSLw3b/D0EtX1rsnfeXaLyVrqbIosiVHtewQmQsW//0A/dq1Skyf77gX9yz8Fo18aUxKnMi/d09zrGJc/qzXnDo19FVcbAfo8akPEv10Gu2a4JTpd9cZz5s9nba/pLoL7fUhcsueNYaWz1xEbwsrnc0NqLdX5Lnhblp+ddqy5bTf314fl6g2mvWISh/KxKnn3Hfdbr6gGSxvUqgcTo2rtLWGrTR76AJVNIUKKb/o8ISY3RLmiazhdMFrbIni1KqlyrES0VTFnSifX03fvZ8tVp/SggV7aNBM8d+yDabIisofdd+camb7kuZPNnXN1HLePbw39bE3P4PmYGB6c9zHnHfB5ak1jbem+Ncic52JOTcbhxS5QSBnCVhFFgusZ/Zs0Cp96+Byun3QuJxtSLYr9ugvf0+fnjhpFVksts7U1FDP7nyEwzDqI0545wD3/R98SOs3baaDYmdhcdu28iwtT5ipBXXsUEJ3f+P6RFWWrsIr3VgsnyVHXRBNEcL3nqaBblxSqpy+etzU6oXPUr8ZbgyVVr5T3v3b0gJIuuvoe67L0i96dHdeWH1cIdIQLkDMmCzSBEtY+foXRVQb5xr1iEofxWTuYI+RX+Am6vw4iT1LkM8FJzKbwkUKnEraKATzjCm2OCq/6JCWsALd8pX+23PzKeUZz5SWK2GhclyETvlbx1pcklaRRRSVP+q+jtDfvmT543RIRBqLJSl4vImyfOnNcW/OpfB1wF+eWd+Ya8reedRrJikvR85zd87ktSr+3MwCURQBAjlJwCqyxq18gE7UntYq3KukMz1fcU9ONqIpKvXQgqe1XYWeWKoVB5C2Ky6WOwfPiF2GbCwqKWkvq3BSxGJxkBYf3VAjXIqnhVVLPZjUqyeLr3tnTotfbXa/TdhH96SCvXXhpFlsLK407W3TdeVN+tw6otuCAsKNBVZaspS0qjvQVzfRLPV+aH1IWZCDcfjelkWZqYU9tPwDIRsC/F8izhdDUD0aycSz2qkc44+AyJQsgn7cPSCOioXLa6W0ZSrRrVJcsZVJnNm2xB6srrsW+dFBlrC0Jcof+G7Jo1ja7OLOIgjVlkflj7rvluVvn3sjZv7IzoiTIKm7zkzfqHknYhuTPD/JHI4998PmZhyASAMCLYNAbJHVs6QTLa+Y3TJalYVamiKLi+SjG/jYhooxl8rzsVgsschSf1aHD3tgQcanv69e97aIz9rni81KKrJM836qedd6lhJFAKguLoXDZbPT7jUu75t0XyqQXCZzdy6+5boY0y5Bz10YILJs8VHmQuu5IX31ESLLFHCWvvO7JJS3ZVLcnL7yjYU8SRuzzaRJRVZETFRKPKguPHse3aLjAlUsX3r3eOXZytJFlhN07wW0u0HmQ9KWsVS5AZasqPxR973yre0TN+Pmz8LS4hRhEzmB49OSvlHzLgORFTiHz3fCENywA22uhq5FEFlZG0soKKcJWEXW4zvX0BM71moVb+3uQhZSbL2642uT6TMdS2N16icnqsVRDstkcDz/rqF3JXMXquZ35bGqNUeNyYoMCheCbOp68es/lTTIs6poZfEzElhtfHndLwQvMD20PhYBl4nICgyC18Wn7taIaGO2mTSDyFIDyzWMrkga6ouJ0oPbgwSI1ZKlPSBCZJElkD4oJswmt+YJDwAAIABJREFUsmxp1c9ilh/YvqjytR2QsaZ+dCJTZIWOt5giS51rUetAIy1ZWgNdq9q3zU05oXVA4Hv0IEGKfCAQGPjOQuu3e96UVpkb+49qVfFY3LFm4Dsf3cDWq7tELFWx8tuEtkHguRbZnfiYiO1iN6J6XlaiwHebW0A+VBVf6oLlBJpum6MGhnu1VPKoMVnGYshvpqPmlblxFhGWLDf4Nv08MzYkoj4ZWLL0+oWVb1j4FDEW2cZGMXEZmDFZ3iaDJlg5HAHRwXL0gfMw00Vmxlg5cVtid58tpsvLr8Rk6U3wiyy9fEsMVoDFyhc/Jh8UlT/qvigitH0x8me7zywiS90xq49Pi8hq1LyzlWc2MO6a4uSzHy8Tc25mmy3KA4EcIoAjHAI6wzzCgS1Z7cQhpCyyeEch/y3dhXz6qHJ5PyDNliveacgi67Q4L0u1ZCU5wkEPMtcrmzbTkxF7pO/o8Vx/pAWsu+dNyQD287WdcJeJXUpD5u1zDzeNElmiTqqbg3cmLhhDL8wP3l0Y6oq09Ef0YaT29laYFjllt19kG10R6+0OjEzvO7ZCr5MerN80K4AjtKpThetnQaWD02WCC1VXnXlGlFeEel6VkV8rI+yeW5bP5aifk6Wd4ZVqgfL8iPwUej9G+6LKz3qXpceHs7tQ342qjzd+uJm+MfMuoDytjeG7C307jFk0Wg/+jTM3sw4XBYJAzhCAyAroCvMwUpvIUoWTWgynDRNZmR5GmjOjpsVUBC6JFtNVqGjjCUS6ABv/CJQAAiCQjABEVggv9Wd1PHfhnV+/Tlq01MuzZpm/ccgWrJ/96jnNXdion9VJ1retPrV2DlirpwEA+U3AsRg1+H5yK79bjdaBQK4TgMgK6SH1B6I9S9bMW6bKmKxaEaNVWFAof6tQvfi3DBsa6mUMFousBU8ulWdqsWULPxDdPNPB240Z+zcOm6daeAoIZJGAcditKDl1qGkWn4KiQAAEGkcAIiuC3+atu2jlmo0yFZ+RNXr4RXTFyEt8sVhmMWzVWrdhM/1h42axK7GNvH3VuMvp4qEDG9djyA0CIAACIAACINAiCEBkxegmLwiehRMfx9D7vB7ivKw+1Euc+N5RHOdQyoeRinsc6P7R8U/o8JGPafvOStr3QZX8LUO2YCUJdo9RJSQBARAAARAAARDIcQIQWTE7iC1aq9Zukkda8NEM9XVit2G7tvLsrCL3DKy6+gZx0nstnXF3E7JbkQXW+PLhsGDF5IxkIAACIAACIJAvBCCyEvQkx2i9sWkLvbtzr8hVII9x4BgsYcZySykQsVfesQ4NdOGgvjRq+DDq0vmcBE9BUhAAARAAARAAgXwgAJGVQS+y2Nohfi6n8i9VdPTYcTpRfUqW0qG0PXXt0onKhDtx8MA+EFcZsEUWEAABEAABEMgXAhBZ+dKTaAcIgAAIgAAIgEBOEYDIyqnuQGVAAARAAARAAATyhQBEVr70JNoBAiAAAiAAAiCQUwQgsnKqO1AZEAABEAABEACBfCEAkZUvPYl2gAAIgAAIgAAI5BQBiKyc6g5UBgRAAARAAARAIF8IQGTlS0+iHSAAAiAAAiAAAjlFoNWJrL37DuZUB6AyIAACIAACIAAC+Umg1Yms/OxGtAoEQAAEQAAEQCDXCEBk5VqPoD4gAAIgAAIgAAJ5QQAiKy+6EY0AARAAARAAARDINQIQWbnWI6gPCIAACIAACIBAXhCAyMqLbkQjQAAEQAAEQAAEco0ARFau9QjqAwIgAAIgAAIgkBcEILLyohvRCBAAARAAARAAgVwjAJGVQY8c+/ivtGPXPqo8UEVHPzpOJ6pPyVI6lLanrp/tRGXn96DBA/tQl87nZFA6soAACIAACIAACOQDAYisBL3I4uqNTVto24491NBAVFBQIHPX19fLfwsLC8Vn/HeD/HfI4H40avgwiK0EjJEUBEAABEAABPKFAERWzJ7cvHUXrVq7SYirBvl/Flg1tbVUIP5XUtJOllJ9Uli0hPhq27ZNKg2nG18+nC4eOjDmk5AMBEAABEAABEAgHwhAZMXoxQ1v/Zle37BZpkwJrJpa6tWzK43+4kXU+7zu8l7lgUO0/o9bqKrqmCa0+N4VIy6mEZd9PsbTkAQEQAAEQAAEQCAfCEBkRfQiW7BWrtmopaoRAqtH9y5005TxVNLesWJ516nTZ2jx0lV0qOqoFFrqddW4y2HRyodZgzaAAAiAAAiAQAwCEFkhkDgG68nFK6T1Sr1YZE2ZWE4XDCqj2to6KioqlLfr6uqpTZsi2vH+flqyfLX8bxG5lcrKrsNbbpqIGK0YAxNJQAAEQAAEQKClE4DICunBFavWiyD3vVqKOhHk3r64Ld1+82QqFVYs1l+FhV4AvBPwfvLUGfr5U88RW7WKilhopa8hg/vSxPGjMxs3e5+liRMW0YULltND5WoRG+i+oevpy1vnUEVmJWc3l6jnpO8QPbLkBuqXhZJXf/8amvZ8uqCChrG0OE5b186jnjMr6YcvPkK3981CRVpSEVu3UOlrpbTl7gE0oCnqnWn5H+6mcY9V0kb33ePyK4bTmvKOTVHDxpWZaftiPfUAPX7D3XT/Nss45jH7ymg69KMRsqQ9C79F36T7aMWM82OVTBS/bHNe8QMum/2o+yxeUx6gX3vviBdMpzeN+cx1G/mwsj5a0gRWOlfWsiyvVTE7yUkW49ncRw8P8PrEK93pmwbje0D2x+5pqbHjjR+tj7Q+jllbMSZ7zaR4a27MIs9KsrP0fQCRFdDbbMV64jcv+O7W1dVR+3bFdMfN1wlXYbEusjggXuSoPnWaHn9qGZ06U0NFYsehed361UkZWbN4wr1MY2kRpRdhp+z8F1nqQiO/HN7zL/pnZeLm6kOtIuFTmv/oJrrviFPplMAxhE+qSeeWBYs0X/lVNOsHW2lhynBbSg/eOYJmOeGK7uWkoakVNH9oADivLt1Cnh3GPCT/qt+tpsnb3cxhbeMkzSCy5r4rnnPt97QvRcqSyIpTtv0L3FtPHqBtc9Jf7nsWzqNXKua4LyuuALvQmIOi7vfSHOMF0N5ZObOWxRA6TTbF4zybx8P8PrrA5c9mvaYIYq6hI653zvRewN0+mmyMLxa3j/emFQ84Ij76ChHt0ZnPbgpjLp2tykBkBZBXg931JA3SRTj1mgoa3L+37i4UVq42wnL13q5KWvLCWl9MlldOZkHwjpC6autoWumzWrUukSW/iMyF52zNoFx9rikSXPExNEzgKG2RgqRgKFXf0MPeQq18R7wtHZK2Su1eu4GGbeumizRZh2r67v3DaLy1VKec7d260cLDmVjhgvPL9hzxhJsrNrvFbV+2O9n7QvweFcx8mgaqltYsiaydM6PLDhRZ/OU/YR/dE2Atli85ZHx5J0KUQ2tZHKGTqG0JEsd5tuyLdTRJGSOy33b0pbcaxijii5mmx1Lj+8hph2MdK6OvLaPc8ZTERZzrImvetpfpxf3vyObc2H8k3TaoPG7T8iLdM8+/SpX7D2ltUY9u6NXjXJp2/ZXSqqVeTuD7ShH47t9h6KUr692TvnLtl5JxUgaMf3E0RZZu6p8+33m7kRPmpfTE1MzL7tuRrFRDX8XFJr4Qpj5I9NNptGuC4z7wu+uM582eTttfUt2F9vrIty8ue9YYWj5zEb0trHQ2N6DeXucLavnVqgk9qHyDS1QbzXpEpQ9l4tRTWhT4SuJKSTYyUqk1Sw1/qlhr+N6Pu8d1zbHFaQ9dcJduiQou32KhsgmqCJGVEmZjq2mYxdWpP78bLZuri7Xg/Jb2yLocpilKG8P4ZdglAdnSVoe739fnZLYsWWzRiCo7iSUr1RDLl35iNjHWMudl0nVXauuReFqj5mXUWhU2bzNYC92112EU9WwbSdNCpdZBEejqi2c2+oir4ortb1tf7M266tzS3xExeCrr7m+2foV2W78TgtZ4rof/2fPmVNJsxZXtfAea35Mx6ha6xscb+VZLFgusZ/Zs0Eq4dXA53T5oXLxS8yDVo7/8PX164qTWEk9k8b9namqoZ3c+wmEY9REnvHOA+/4PPqT1mzbTQbGzsLhtW3mWlpdHLahjhxK6+xvXJ6IkzetXuqZgnyVHHTymCPG/4chy+upxU6sXPkv9ZrgxVFr5fnOx/pbkFz26Oy+sPu4gbwh3/fliRzTBEla+Pqmi2jjXqEdUejWmxsZk7uD0274pcBN1fozEPsuTZmlyRcbYDnTf64fd0mzuPOeWFCuH+2lWrPDy3Tyvk+sidETX1rGOqJPlvV5taYUilFTRc9gfT8Zl/Hu3ESk3o26ZEkWH5WcWSyktyhT36Iwpjusyqn0xuiBBEvWL0/gSzZoli9eK8LKDRZbzBcvxn74XnyxYkaPXsgdESITywmXEBDV2XqovaLa1KnjeJl0L1bU3ap0MHj7ay3DK+jWSXlHcg1pfZqGPdPdjlKfEXce19e5Zen/GSNrNL5qB66Bt/Q/+LN1vfq76M56lPeK7rMJnyfJ/T0bVLXiNjz/drSJr3MoH6ETtaa2UXiWd6fmKe+KX3MJTPrTgaW1XoSeWasUBpO2Ki+XOwTNilyGHoJSUtJetPSlisThIi49uqBEuxdPCqqUeTOohYfF178xp8Qn5zPe6cNJisiwTTJuA7iSd9Ll1RLcFBYQbg1FaspS0qpnb5lpQ74fWh4w4AjsS35eBuuiGln8gZEOAf8Kl4xls9WgkE89qp3KMPwIiUlosNT6RJeKlhijuMVN4pJ5gs2JFle9mlmU6Is4TL1rFQyxZmqUtTjyUkSY0v5d2KtGtMuieBaY4s26JcE2OZZEVs31Z6y+/+EkFFmdVZIkKm3NFCar3vbyYFiOR3UuTCohv7Bd4rLXMcKH64o3UjmjkvIxay7R561mRAtbCsLWo4k2/CzaOu5CbqjDrpwS3p8XX+fo6aqmHtkkhhlVdf2mMEFmGCE71jtXtrDI0rXSc0/JZGNf+zwQH5YeJrDh1C/veS7AWxBZZPUs60fKK2QmKbtlJTZHFreGjG/jYhooxl8rzsVgsschSf1aHD3tgQcanv69e97aIz9rni81KKrJ8u3g8tKmgWWUSqKZ0pQvSu4YCdiy5b65vuYHLmrk3bLDZFl1TZIkgTfNy6iNEllm2Zdj437iViUhOEKi9fENkJWmju7jx23xWmDSlyLKJF5slS3P/2V2CsWOpLCJn8nbPMuUGwauijnkGiSxTVNlEli0433OHRuVPiT/VeufGb7HI6maJFYsj9DJe4vxfJKkxLr40srG7UH1hCCo71JKltk3dCcgW8JB4rSgkidYypTDzRTFr8zLihTAV0iBfjmKIrKC1iPvVjCONK7Kkm5GF531E9yrB7V7+nxJ9S+2TsJi6OM8M9ZRYejhIeFs/N0SWb/23MA77TrNx9aoYJrIyqVscdhY8VpH1+M419MSOtVry1u4uZCHF1qs7vjaZPtOxNGotkfc/OVEtjnJYJoPj+XcNvSuZu9Cm9kVJ2tuDIbJCg8JF2qnrxa//VNIgz6riexNJ8HZoe4tRB3Dom69lQmUisgLbq3PRtyFHtDHbTJpZZOliybarL8hiZdn9ZxFHWvmW+CbNfeftMAwQWb5YKGUMOBYxf2C9uvtvt7pr0Bg/Mr8UUZWkBf2rdSa/yLKKzVizPk4i25x2v0jnlNHc3Y0/wkG3ytrLji2yXOuC465xrM96TGScNnOauGtZiCVLvFQlmseGiPIdRWCsVf6jCiJEQaRIc9lErZMRCJ2+mk5D5u1TAtDt/epxtvZRpFAw4pTUelksnfJ2iMhKzNO2ToZ9h0TdUyy3pscncd0i2dk7MXB3IQut3+55U1plbuw/qlXFYzEqM/Cdj25g69VdIpaqWPltQhtWz7XI7sTHRGwXuxHV87ISBb4HvpWoC5YqGJwAQXX7dbqOSh41JssYqPy2OWpemRuEHvH25gZzpp9n+tQj6pOBJUuvX1j5weIzso2NYmKLUfCfYRP3qyk6nSFCPMuNEfie3l3nxlAZu/+ChUVU+XoMlqyvzR0ZubvQbWnA8RDpox9cS1nQMQ8WK5QZw6XHYEW1L7oHkqWwiw1p5XlZnFU1aFpqi32m52SZrm9b2WG7C+99dSQ9dIt7Npdcg5Qdbp5F2DweQMyZ0CMcYq9lIuBdKVuLZ2zUvDTXCnOtipq3SddCdVREPTtiBHnWHMPV5+00pKuNs9SC+igjoRAVk+Vfg/eIGN/AmKzUWV62l2zbZ1FrvHncSCNissLqlhE73ihmHmeu9PUvdq4VFo+GViewGIF5hANbstqJQ0hZZPGOQv5bugv59FHl8n5Ami1XvNOQRdZpcV6WaslKcoRD2FbctE+ejNgjZ1B6Bwl6rj8ytl6ny3Z8+t5OuMvE7sD0G1PUwiIar7rh+G1nwRh6YX7w7sJQV6RlrTFjR6J2N6bvWwId3d1+kW00dqxEpvdNQL0Pmnx3oepOY3Hl26Gnn5Gl7jyUyKOOeIgq3+fOswTWZyyyPNGmBO1P6UZLhZf4CdthqzHOCKMLjeMbotqXTEVFpA6w6HhjzgwUVg/85JJDY2rilx21uzB1EKl4pLdD2XxhS+2e5RvmmV8GhURr2QKiaa7rTZ/vuqUl8bxMuFbprGOshcYOQq3ukc8OGTZuXlLOLuPU8jtgHgUcuGyxSgVZo0JHbJTIkt+YAYfXhq2DcUWWv3x9TEQ/2767MGHdILKyugqSeRipTWSpwkl9OqcNE1mZHkaa3Ra2htLiLA6tgQPaCAIgAAIgcDYIwJIVQl39WR3PXXjn16+TFi318qxZplGQLVg/+9VzmruwUT+rczZGSAt+pu1nJlpwc1B1EHAJGG/gHpcYu8aaHmEu163pW5/ZE84Gs7PxzMzotPRcEFkhPaj+QLRnyZp5y1QZk1UrYrQKCwrlbxWqF/+WYUNDvYzBYpG14Mml8kwttmzhB6KbZ7p4O5hi/8Zh81QLTwEBEAABEGhlBCCyIjp889ZdtHLNRpmKz8gaPfwiumLkJb5YLLMYtmqt27CZ/rBxs9iV2Ebevmrc5XTx0IGtbIihuSAAAiAAAiDQOglAZMXody8InoUTH8fQ+7we4rysPtRLnPjeURznUMqHkYp7HOj+0fFP6PCRj2n7zkra90GV/C1DtmAlCXaPUSUkAQEQAAEQAAEQyHECEFkxO4gtWqvWbpJHWvDRDPV1Yrdhu7by7Kwi9wysuvoGcdJ7LZ1xdxOyW5EF1vjy4bBgxeSMZCAAAiAAAiCQLwQgshL0JMdovbFpC727c6/IVSCPceAYLGHGckspELFX3rEODXThoL40avgw6tL5nARPQVIQAAEQAAEQAIF8IACRlUEvstjaIX4up/IvVXT02HE6UX1KltKhtD117dKJyoQ7cfDAPhBXGbBFFhAAARAAARDIFwIQWfnSk2gHCIAACIAACIBAThGAyMqp7kBlQAAEQAAEQAAE8oUARFa+9CTaAQIgAAIgAAIgkFMEILJyqjtQGRAAARAAARAAgXwhAJGVLz2JdoAACIAACIAACOQUAYisnOoOVAYEQAAEQAAEQCBfCEBk5UtPoh0gAAIgAAIgAAI5RaDViay9+w7mVAegMiAAAiAAAiAAAvlJoNWJrPzsRrQKBEAABEAABEAg1whAZOVaj6A+IAACIAACIAACeUEAIisvuhGNAAEQAAEQAAEQyDUCEFm51iOoDwiAAAiAAAiAQF4QgMjKi25EI0AABEAABEAABHKNAERWrvUI6gMCIAACIAACIJAXBCCy8qIb0QgQAAEQAAEQAIFcIwCRlUGPHPv4r7Rj1z6qPFBFRz86TieqT8lSOpS2p66f7URl5/egwQP7UJfO52RQOrKAAAiAAAiAAAjkAwGIrAS9yOLqjU1baNuOPdTQQFRQUCBz19fXy38LCwvFZ/x3g/x3yOB+NGr4MIitBIyRFARAAARAAATyhQBEVsye3Lx1F61au0mIqwb5fxZYNbW1VCD+V1LSTpZSfVJYtIT4atu2TSoNpxtfPpwuHjow5pOQDARAAARAAARAIB8IQGTF6MUNb/2ZXt+wWaZMCayaWurVsyuN/uJF1Pu87vJe5YFDtP6PW6iq6pgmtPjeFSMuphGXfT7G05AEBEAABEAABEAgHwhAZEX0IluwVq7ZqKWqEQKrR/cudNOU8VTS3rFiedep02do8dJVdKjqqBRa6nXVuMth0cqHWYM2gAAIgAAIgEAMAhBZIZA4BuvJxSuk9Uq9WGRNmVhOFwwqo9raOioqKpS36+rqqU2bItrx/n5asny1/G8RuZXKyq7DW26aiBitGAMTSUAABEAABECgpROAyArpwRWr1osg971aijoR5N6+uC3dfvNkKhVWLNZfhYVeALwT8H7y1Bn6+VPPEVu1iopYaKWvIYP70sTxozMbN3ufpYkTFtGFC5bTQ+VqERvovqHr6ctb51BFZiVnN5eo56TvED2y5Abql4WSV3//Gpr2fLqggoaxtDhOW9fOo54zK+mHLz5Ct/fNQkVQBAiAABHPq1mvpUlc+z069KMRscjsWfgtGvlwek29bPajtGLG+bHyykSx15ZmXBNj1yl+M5EyfwhAZAX0JVuxnvjNC767dXV11L5dMd1x83XCVVisiywOiBc5qk+dpsefWkanztRQkdhxaF63fnVSRtYsFhsv01haRKONRa0ZF5Q4Yz/Liw63++EB6cVYiq73ptObWRJxcZqUD2lW/W41Td7utuTcMtpy9wAaoDQs6n7TM/iU5j+6ie470o2WzR1G47UHVtGsH2ylha5h+PIrhtOa8o5GleLnJyqlB+8cQbOccEpxxSm/6Qnk/hMO0C+mPkMDlngvdAfo8Rvupp0zzRc/e0tWL3yW+s3wXr6S5W0ykcWi8RVzTU3QE1le7xI8GUlbAAGIrIBOUoPd9SQN0kU49ZoKGty/t+4uFFauNsJy9d6uSlrywlpfTJZXTmZB8I6QumrraFrps1q1LpEl36Tn94HISrDASAF1xBNWrhjpNpSqb+ghS4m6n+BRmSXduoVKl56gB6/oQPe9Tj6RxfVbPrSC5g8VxX+4m8Y9dpim3KWIpND8TnuXDkkLs91rN9Cwbd1SQjOy/Mxa1TpyNUKksGXrm3RffGtWbEGTYE1sRP2TCb/WMRzQSp1AoMiat+1lenH/OzL1jf1H0m2DylsVu2eef5Uq9x/S2qwe3dCrx7k07forpVVLvZzA95Ui8N2/w9BLV9a7J33l2i8l46ksBKZlh8hcUPjvB+jX7lv/9PnOW6Y01b80JiVO5N+7pzlWMdUF0NBXcbGJt82pDxL9dBrtmuCU6XfXGc+bPZ22v6S6C+31IXLLnjWGls9cRG8LK53NDai313n7XX616mYIKt/gEtVGsx5R6UOZOPWc+67bzRc0veUt2BLFVpo9dIEqSjShEnXfaYNWPvmtTZGWMCmEDqfGfdoa9SktWLCHBs0U1iuZxi+y9Mliiqao/I6Viqa6Io0Lk+2vpu/eb1rM+KZflCWbrHFSh82ZoHkRNqYsokITD+pLmrs2aPPcXR9cV15sl7xoamKhlMITRwhlurYkWBMV96W3Vjprqn8NdaoeVac4/Y80rYWAVWSxwHpmzwaNwa2Dy+n2QeNaCxd69Je/p09PnLSKLBZbZ2pqqGd3PsJhGPURJ7xzgPv+Dz6k9Zs200Gxs7C4bVt5lpYnzNSCOnYoobu/cX0iltJVeKVrkvdZctQFxRQhfO9pGujGJaXK6avHTWlmfK18p7z7t6UFkHTXkReH4Rc9ujsvrD7ul0ZDuAAxY7JIEyxh5esLbVQb5xr1iEofxWTu4HSsiilwE3V+jMRS4BQYlinvb1O4SIFRSRuFYJ4xRQgPMoSNeV9Yj9jy8+/dRjiWJE9wpSxjrgALej5n8CxNmovO0rBYIssimryiAvJLy5WwkDkuQif/1rE2lyMXFFJ+jL6ITmKOWXMe2OaF+1ngmIojsh4QoQbKi4yY571mkvNiwxaiCfvoHi/WUfBaXT4iRoynvr5Ett2NK33L+rJm5m7M2hJ/TZQvmJq7MHrNUl/yEL4Q2eutOoFVZI1b+QCdqD2tgelV0pmer7in1cB6aMHT2q5CTyzVigNI2xUXy52DZ8QuQzYWlZS0l1xOilgsDtLioxtqhEvxtLBqqQeTevBYfN07c1p8luYCKN+k0sJJs2RZXGmaJcg1t0/63Dqi24ICwo0FSlqylLSqyd5XN9Es9X5ofShWPIfPcqd+OYSWfyBkQ4B/EQ6PK2kkE89qp3KMPwIiUgZZolxLDQuP10ppy1SiW6W44ngkcWbbkk20fawrssLuu8JKq4RXpozrini+K8p+3D1I1CglxxBZumvTQBOWX7GkSXFpa5dFQGatm7yCouYMjxUzzsmWRxtTcUSWumZwZZTn8EvXhHU0KckmkcCNOHGJORahBt9GHjd/FKe4cz9qTTRFVlj6ijd1McpVje3CjMsF6fKJQGyR1bOkEy2vmJ1PbQ9tiymyODEf3cDHNlSMuVSej8ViiUWW+rM6fNgDCzI+/X31urdFfNY+X2xWUpFl7shJVTy1q0dZYM2dP25idReP1byvvGFylrS7wHMXBogsW3yUKbLUnUhafYTIMgWcpVf87lHly4GMnU5a+YbIStJGd/Hk3Zz81t1oJk0pshTLk47PDe4+7Lnp1GBvxyWWElnSjRdwPxUH5Vi/UpcXPB/1/O7KswKETarMCJGlW6QsgyUgv+PK9FycbpD7kLTlzyspsvxsrIBRc8Y2VqxxiOrcjCOy/DuQzRcwb7yn3Wb2BvMaMmpeWbxdvmHMwuIroziFrnXK3I9aE20iK2jN6v+MPx4UIisbsyJvy7CKrMd3rqEndqzVGt3a3YUspNh6dcfXJtNnOpbGGhCfnKgWRzksk8Hx/LuG3pXMXRiwA0e15qgxWZFB4WIxnrpe/PpPJQ3yrCpaWVzLBFYbX14E+BoaAAAgAElEQVSRXa1DaH0sAi4TkRUYBK+Lz5RrRD4joo3ZZtKUIstmSVI5uiJoqC8myQ0eJ8d9GHjfFUlq4Lh0/7H1K8iSpfVjghinEJEVSwDZ8tsC5S2fxSo/1syPSGSbE6aL3nz5sM2zbFqyytU6h1uYtFjOxvKIEFn6nE2ythgvnmEbZWJYslLNjFrvGssD+fOOQGDgOwut3+55U1plbuw/qlXFY3Evm4HvfHQDW6/uErFUxcpvE9pGhOdaZHfiYyK2i92I6nlZiQLfrW4CfqoqvlTB4CyQ2+bYzp8x3APeWVbGQqe/pUZYstwg0PTzzHiSiPpkYMnS6xdWfvBCG9nGRjEJiJ/xNhk0wTJixmSZjzBdbNYYrsAYKzNGybUEdUsfAxH1fEfAdLAczWDUNEhkNSqmyxKDZT4nbvlZ6TtzzFpisnzzImpMBcR5pWK43GDtyQFxgmK830tz3PP3Al7sfC8nFhiB65VIK+7d++pIeugW71yssLnrvQipa1mStSXumugKNy0mK2pNCatTVgYICskjAjjCIaAzzSMc2JLVThxCyiKLdxTy39JdyKePKpf3A9JsueKdhiyyTovzslRLVpIjHPQgc72y6TdKMmKP9N0vnuuPtIB1onTZ52s74S4TuwOHzNvnHm4aJbKcxTPlVuMdSwvG0Avzg3cXhroiLf0RfRipvb0VprVK2e0X2UZXxHq7AyPT+1wGep30YP2mWEG8M6KUsi9U3WHGfe0e54m4r+0MFG7FKd1oqTiP8onUWVtRz3eC54e9Xp2qoHrWlb5z0UtiuPf0qSYSpXc4hucXSX0uTdU1qp+RlSZoO68rS30XOmeCLLwRY8osc04Zzd3tnf/kio4FRNNcV5i2g9BwpVPQAaNmOhdHqizTKqThMuov7kW5JTNfW0z3adAakRZzvHM6aHdhICvrepelMYJi8oIARFZAN5qHkdpEliqc1GI4bZjIyvQw0rwYcc3aCEucSrM+Hw8DgZgEQsVJzDJCkzXPXFj9/W/RrsANNdloB8oAgZZFACIrpL/Un9Xx3IV3fv06adFSL8+aZf7GIVuwfvar5zR3YaN+Vqdlja2zXtusxo6c9dagAvlLIGKXXVYa3jwiKytVRSEgkEcEILJCOlP9gWjPkjXzlqkyJqtWxGgVFhTK3ypUL/4tw4aGehmDxSJrwZNL5ZlabNnCD0Q3z8zxdmMmOVCxeWqGp4AAEzAOFRWfRLrNGg0OIqvRCFEACGRAACIrAtrmrbto5ZqNMhWfkTV6+EV0xchLfLFYZjFs1Vq3YTP9YeNmsSuxjbx91bjL6eKhAzPoJmQBARAAARAAARBoaQQgsmL0mBcEz8KJj2PofV4PcV5WH+olTnzvKI5zKOXDSMU9DnT/6PgndPjIx7R9ZyXt+6BK/pYhW7CSBLvHqBKSgAAIgAAIgAAI5DgBiKyYHcQWrVVrN8kjLfhohvo6sduwXVt5dlaRewZWXX2DOOm9ls64uwnZrcgCa3z5cFiwYnJGMhAAARAAARDIFwIQWQl6kmO03ti0hd7duVfkKpDHOHAMljBjuaUUiNgr71iHBrpwUF8aNXwYdel8ToKnICkIgAAIgAAIgEA+EIDIyqAXWWztED+XU/mXKjp67DidqD4lS+lQ2p66dulEZcKdOHhgH4irDNgiCwiAAAiAAAjkCwGIrHzpSbQDBEAABEAABEAgpwhAZOVUd6AyIAACIAACIAAC+UIAIitfehLtAAEQAAEQAAEQyCkCEFk51R2oDAiAAAiAAAiAQL4QgMjKl55EO0AABEAABEAABHKKAERWTnUHKgMCIAACIAACIJAvBCCy8qUn0Q4QAAEQAAEQAIGcItDqRNbefQdzqgNQGRAAARAAARAAgfwk0OpEVn52I1oFAiAAAiAAAiCQawQgsnKtR1AfEAABEAABEACBvCAAkZUX3YhGgAAIgAAIgAAI5BoBiKxc6xHUBwRAAARAAARAIC8IQGTlRTeiESAAAiAAAiAAArlGACIr13oE9QEBEAABEAABEMgLAhBZedGNaAQIgAAIgAAIgECuEYDIyqBHjn38V9qxax9VHqiiox8dpxPVp2QpHUrbU9fPdqKy83vQ4IF9qEvnczIoHVlAAARAAARAAATygQBEVoJeZHH1xqYttG3HHmpoICooKJC56+vr5b+FhYXiM/67Qf47ZHA/GjV8GMRWAsZICgIgAAIgAAL5QgAiK2ZPbt66i1at3STEVYP8PwusmtpaKhD/KylpJ0upPiksWkJ8tW3bJpWG040vH04XDx0Y80lIBgIgAAIgAAIgkA8EILJi9OKGt/5Mr2/YLFOmBFZNLfXq2ZVGf/Ei6n1ed3mv8sAhWv/HLVRVdUwTWnzvihEX04jLPh/jaUgCAiAAAiAAAiCQDwQgsiJ6kS1YK9ds1FLVCIHVo3sXumnKeCpp71ixvOvU6TO0eOkqOlR1VAot9bpq3OWwaOXDrEEbQAAEQAAEQCAGAYisEEgcg/Xk4hXSeqVeLLKmTCynCwaVUW1tHRUVFcrbdXX11KZNEe14fz8tWb5a/reI3EplZdfhLTdNRIxWjIGJJCAAAiAAAiDQ0glAZIX04IpV60WQ+14tRZ0Icm9f3JZuv3kylQorFuuvwkIvAN4JeD956gz9/KnniK1aRUUstNLXkMF9aeL40ZmNm73P0sQJi+jCBcvpoXK1iA1039D19OWtc6gis5Kzm0vUc9J3iB5ZcgP1y0LJq79/DU17Pl1QQcNYWhynrWvnUc+ZlfTDFx+h2/tmoSL5UMSHu2ncY5W00dX+l18xnNaUd8xey5q6/OzVFCVli0Ds+d6M61TsOmULAsoBATsBiKyAkcFWrCd+84Lvbl1dHbVvV0x33HydcBUW6yKLA+JFjupTp+nxp5bRqTM1VCR2HJrXrV+dlJE1i8XGyzSWFtFoOvSjEUqxzbh4xZlJWV7guN0PD3iUVsw4Xz5diq73ptObWRJxcZqU02kMYZOq67lltOXuATQg9UEVzfrBVqKpFTR/qNmiT2n+o5voviPu5xcOpeobejh/ZKV859kLU4bdUnrwzhE0ywlnlNeq362mydvdP3x158/1OqoCUcsrUiYSj7Hbl9Oj4OxVLvZ8T7BO8QvSK+Y6l6CJseuUoEwkBYEMCEBkBUBTg931JA3SRTj1mgoa3L+37i4UVq42wnL13q5KWvLCWl9MlldOZkHwzgJ11dbRtNJntUqweGUwSBJnyfICZ4os4gV4fh+IrJCOkaKjQBFKKbFUTd+9fxiN1/I64mXpEM+qZf7tf1DjyifavXYDDdvWLSUCZXlHPFHoiqlufqE31CoQzfqFicl4o9navnhZW1+q2PM9wToFkdX6xlGetjhQZM3b9jK9uP8d2ewb+4+k2waV5ykCe7Oeef5Vqtx/SLupHt3Qq8e5NO36K6VVS72cwPeVIvDdv8PQS1fWuyd95dovJeOpLDo+0UHm4sV/P0C/dq0G0+c77sU9C79FI18akxIn8u/d0xyrGJc/6zWnTg19FRfbAXp86oNEP51GuyY4ZfrddcbzZk+n7S+p7kJ7fYjcsmeNoeUzF9HbwkpncwPq7RV5bribll+dtmyRbL+/vc7nihs1qo1mPaLShzJx6jn3XbebL2hOyxuLjD10wV26pcixSFlElu3zrVuo9LVSwxLmDdmE5ZNF9GjPtJQn7x+mKW4bWPT8uHt816Y1Pbdp6eHUvAu2dgW0L9mMjUgdNmeC5kXYmLIIGE2oqC9p7lzR5rm7Pjy8V9Y73CWf6XxPsE659eC6eOtX8DznVFF1ymrnoTAQiE3AKrJYYD2zZ4NWyK2Dy+n2QeNiF9zSEz76y9/TpydOWkUWi60zNTXUszsf4TCM+ogT3jnAff8HH9L6TZvpoNhZWNy2rTxLyxNmakEdO5TQ3d+4PhEi6Sq80o3F8lly1MXLFCF872ka6MYlpcrpq8dNrV74LPWb4cZQaeU75d2/LS2ApLuOvue6LP2iR3fnhdXH/dJoCBcgZkwWaYIlrHx9UY9q41yjHlHpo5jMHewx8gvcRJ2fMLG0Eh3ul3L3yb9fr7aU0o2WzRVWLSk+yPlvL1WQIBP3E5fv5XmdXBehI7q2jnVFk/l8xX03Ywq7Nl3RM7YD3fe6J5L87sZUA4NE49ITPhelDa3ZvoT4YyQ3x6w5D2zzwv0scEzFEVkPiFAD5UVGzPNeM8l5sWFr1IR9dI8X6yjGzOryEZYYz8bM9/jrlHzp09yF0euI+uKFkIIYwxBJmoWAVWSNW/kAnag9rVWgV0lner7inmapVC485KEFT2u7Cj2xVCsOIG1XXCx3Dp4RuwzZWFRS0l5W+aSIxeIgLT66oUa4FE8Lq5Z6MKnXLhZf986cFr+Z5gIo39rSwkmz2FhcaZolyDXtT/rcOqLbggLCjcVQWrKUtKp7wFc30Sz1fmh9SAq4nTPNQH4djc1dmPpyCC3/QMiGAP+CH16PRjLxrHYqx/gjIEHKECtMoHAyLU1e7JMrwrSnZ1K+W4BiSXLEk/I5W82mEt0qg/JZQIkz5ZZsou1jPZEl4rmGKO5DizBU47JMK1V8S1gzWLGi5gyPFXNe2PJoYyqOyFLXDGavPIdfuiaso0lRm0Si6h53PkatU6bICktf8aYuELlpsV2YCaYWkoJABgRii6yeJZ1oecXsDB7RMrOYIotbwUc38LENFWMuledjsVhikaX+rA4f9sCCjE9/X73ubRGftc8Xm5VUZEm3nmI+TxG91rOUKAus6uJS0F82O+1e4/K+SfelAsllMnfn4luuizHtLvDchQEiyxYfZYoszw3pq48QWaaAswwXv3tU+XIgxc3pK98QWUnamG0mzSSyzFgnDWeIdUoPbhciZ0o3WrrE71rMtHxHAHmizQ2C90RTSnyp1ilH6KVFlun+DBdDekyVWlb4ehTavmwtZVFzxjZWrHGI6tyMI7L8O5DNFzDevcxrQNpFZzQ6qu6h648yH6PWKZvIClpH+j/jj9GEyMrWaEU5jSRgFVmP71xDT+xYqxXd2t2FLKTYenXH1ybTZzqWxsL+yYlqcZTDMhkcz79r6F3J3IWWt1ouSDX1q7FHkUHhYjGeul78+k8lDfKsKlpZXHgCq40vr1O3VGB6aH0sAi4TkRUYBK+Lz5T1Sz4joo3ZZtIsIisi4DtMZJncWfhs657eYSjvZ1i+EV8li1I/I+dYCS2oXctje26ExUmLKYsO5Hea3/iA+VgLg21OmC568+XDNs+yackqV2vuxDc1+I6KMdcdN0/s+W68DIZtXolhyUrVOGoNitUpSAQCTUMgMPCdhdZv97wprTI39h/VquKxGLUZ+M5HN7D16i4RS1Ws/DahrVs81yK7Ex8TsV3sRlTPy0oU+G51E/BTVfGlCgZngdw2Rw0M92ppuAe8s6yMRZ8tXaPmlblB6BGWLDfgNP08M54koj4ZWLL0+oWVH7yoR7axUUwC4me8TQZNM5d9O/Z8j4krsmwxWqKwSCtPhDsyFYPFFTOeoe8udI9zUHZHmvfD6+LfnejEpXXQ484MQJHty1q/mWPWEpPlmxdRYyogzisVw+UGhk8OiBMU4/1emuOevxfwYifbH1X3mPPRV44B1xRZoemj6pS1jkNBIJCYAI5wCEBmHuHAlqx24hBSFlm8o5D/lu5CPn1UubwfkGbLFe80ZJF1WpyXpVqykhzhoAeZ65VN7w4kI/ZI32njuf5IC1h3z5uSAeznazvhLhO7A4fM2+cebholskSdVDcc71haMIZemB+8uzDUFWnpj+jDSO3trTCtVcpuv8g2uiLW2x0Ymd7nntDrpAfrJ56n0RncYPHQIw5CRFbkGVWNLN9/1pYZuB5yTpdsvXFfO0fLuCdS23YOmhsAtDRx2hfdC/9/e+cCXFV19fGVBAIJVCgYHqMQUEiBFOk3peE1QEhHaEdQFJyOWGrrW0M7n1KZ+doZOu1M7YwWO+OAto7SWqvzWaUqog50CihiIdX5mqEg8igkUCXyUKqEQB7322vfc+7de5/3zU16cvK/jgPh7LPP2r91zs7/rr32OuFb+D4zXhHegHvK7HNlOa0+bNeasr5wrCNaZi27aTsIjaV0yqQiuAwp5+fdXNL0em6zYo53M3vtLvS033UOCu8atASBfBKAyPKgaRYjdRNZqnBSu+G2fiIr12Kk+XR87+jLJU+ldwwco+xpBByRm3wPAM9CvomiPxAIQwAiy4eS+lode7nw7u9eLyNa6seOZpnvOOQI1q9/95K2XNip1+qE8SjaZAhodcDABQRiS8AnBypvNkNk5Q0lOgKBCAQgsnxgqS+ItiNZtbctlTlZbSJHq7CgUL6rUP3wuwxTqQ6Zg8Uia91TG2RNLY5s4QXREe7MTjS1d2OGfsdhJ66FU0EgOgGjqKjowHM3X/TOPc6AyMobSnQEAhEIQGQFwKrfe4g2b9stW3GNrFlVV9GcGV9x5GKZ3XBUa8euenp7d73YldhHHl4wbxpNqRwXwT1oCgIgAAIgAAIg0FMJQGSF8JydBM/CicsxjLpsuKiXNZpGiorvA0U5h1IuRiqOcaL7J2c/o5OnPqX9Bxuo8cMm+S5DjmBFSXYPYRKagAAIgAAIgAAIxJwARFZIB3FEa8v2OlnSgkszdLSL3Yb9+sraWUVWDaz2jpSo9N5GF63dhLysyAJrfnUVIlghOaMZCIAACIAACCSFAERWBE9yjtY7dXvo/YNHxVkFsowD52CJMJbVS4HIvbLLOqRo4vgxNLNqMg0ZfEmEq6ApCIAACIAACIBAEghAZOXgRRZbB8Trchr+1USnz5ylc80tspcBpf1p6JBBVC6WEyvGjYa4yoEtTgEBEAABEACBpBCAyEqKJzEOEAABEAABEACBWBGAyIqVO2AMCIAACIAACIBAUghAZCXFkxgHCIAACIAACIBArAhAZMXKHTAGBEAABEAABEAgKQQgspLiSYwDBEAABEAABEAgVgQgsmLlDhgDAiAAAiAAAiCQFAIQWUnxJMYBAiAAAiAAAiAQKwK9TmQdbfwoVg6AMSAAAiAAAiAAAskk0OtEVjLdiFGBAAiAAAiAAAjEjQBEVtw8AntAAARAAARAAAQSQQAiKxFuxCBAAARAAARAAATiRgAiK24egT0gAAIgAAIgAAKJIACRlQg3YhAgAAIgAAIgAAJxIwCRFTePwB4QAAEQAAEQAIFEEIDISoQbMQgQAAEQAAEQAIG4EYDIysEjZz79Nx041EgNx5vo9Cdn6Vxzi+xlQGl/GvrFQVR++XCqGDeahgy+JIfecQoIgAAIgAAIgEASCEBkRfAii6t36vbQvgNHKJUiKigokGd3dHTIPwsLC8W/8c8p+eekirE0s2oyxFYExmgKAiAAAiAAAkkhAJEV0pP1ew/Rlu11Qlyl5P8ssFrb2qhA/FdS0k/20nxeRLSE+Orbt0+mDbebX11FUyrHhbwSmoEACIAACIAACCSBAERWCC/uevcf9NauetkyI7Ba22jkiKE062tX0ajLhsljDcdP0M6/7aGmpjOa0OJjc6ZPoelTvxziamgCAiAAAiAAAiCQBAIQWQFe5AjW5m27tVatQmANHzaEbl4yn0r6p6NY9qflwkV6dsMWOtF0Wgot9bNg3jREtJLw1GAMIAACIAACIBCCAESWDyTOwXrq2U0yeqV+WGQtWVhNE8aXU1tbOxUVFcrD7e0d1KdPER345zF6ceNW+XeRuZU5lZcOb7t5IXK0QtyYaAICIAACIAACPZ0ARJaPBzdt2SmS3I9qLdpFknv/4r505y2LqVREsVh/FRbaCfDphPfzLRfpN0+/RBzVKipioZX9TKoYQwvnz8rtvjn6Ai285hmauG4jPVytdrGLVlXupG/sXUk1ufWc37OEnYt+SPToizfS2Dz0vPXH19KyV7IdFaTm0rNhxrp9DY2obaCfvfYo3TkmD4YkoYuPD9O8xxtot6X9p82pom3VA8OPLOz5e/dQ6ZultOfeK+nK8L13fcuw9ne5JcfpiRvvpdXvE01d/DV696WTPfc+xXPW5XcLLtBzCUBkefiOo1hP/uFVx9H29nbq36+Y7rrlerFUWKyLLE6IF2c0t1ygJ55+mVoutlKR2HFofm7/9qKcolksNt6gufQMzaITP5+udJt8kfXIlY/Rplsvl2OWouuD5fTXPIm4nvv4Zi0/vH0XTX6rWRuKU0A10Yqf7iVaWkNrK91G/TmtfayOVp1KH4t+vtJnnkVW8PjSY1vvKx49xm8Ir8woLi3vMpF4ZP0PaMbhZcZznMOdyALnz+Z8kEM/OAUEQKBLCEBkeWBVk931Jim5RLj02hqquGKUvlwoolx9ROTqg0MN9OKr2x05WXY/uSXBp4XUgr2zaLMjatW7RBbxL5a1oyGylBuTRcjt9GX/qJQUE830Pz+ZTPPN+94SGpWeAkyc4He+2V8XiCy/8W3541baWGmJR2nnSVpyz3Rakd6Tkv5EsJ/7W1xQSc03Du+SiZdF1vdpVeaLQ84XgcjKGR1OBIHuIOApstbse4NeO/Z3acNNV8ygO8ZXd4c9sbnG86/8hRqOndDsUUs3jBx+KS274WoZ1VI/6cT3zSLx3bnD0G5XPmoEfeu6r0cbqzKZciRHjewQmSKLf36Qfm99q1++Nr28KL89vz47I060b9Pc/4o30zalxihLF2JZY+lDRL9cRoeuSffpXK4zrnf/ctr/urpc6G4PkdX3itm0sfYZek9E6dyWAfXxppdZNn4zG9lKj985XgeXoDGadgS192WSXQ6STCd0beStsyKLRcUvhgUsHQaIFClM9iu3tREJ0o67RIn088vo5dVZMRhqfJlLpyNyGyYZ4wktsjjidYQmmCIt2hPr0dq4L0Sr5Wt/RAW19nK/+zMxlp/dR47KPu3nT/03/nf7OVcv7JwrzHkg2rPpZkeNY/7xu/fDzCd5AY1OQCAWBFxFFgus54/s0gy8vaKa7hw/LxZGd4cRj/32T/T5ufOuIovF1sXWVhoxjEs4TKbRosI7J7gf+/Bj2llXTx+JnYXFffvKWlq2MFM7GjighO793g2RhiGXCq+2crEckRxVZJkihI89R+OsvKRMP2P0vKmt61+gsbdaOVRa/+n+frIvK4Dkch39yFrqcIoefTnPzx5rMk75CxAzJ0sXLH796+IzaIyrDTuC2gcxWV1hM3IK3EjOD9HYT4S4LbWlu7SFjCUq5g6gVW+dtK5WSg/dnY4EBZ9P5Ij8GJEs87j5M1/jV2XTM8uY8vip7HJdNJGlLwuGsV9FLNufHNtlUSy+lh7Jcj6/2r3IOY7XNNJ9dh6isG9r9fR0/mVQJEscH1lLypeX9PNysJbnkojPpqcdLvZ73vtB80mImx1NQKAHEXAVWfM2P0jn2i5owxhZMpheqbmvBw2tc6Y+vO45bVehLZbaRAHSfsXFcufgRbHLkINFJSX95cXOi1wsTtLi0g2tYknxgohqqYVJbYtYfD1Quyy8gebkJr85ZoWTFrFxWUrTvs1aSemLvrSD6A6vhHBj0pSRLKWtmtjusE0MSz3uaw8pE743Dse3cfUXh2//x302BDh/MaR/8XjZ0UkmdtRO5Rj+Dghs6RASbvlEnpEcK59pkrI8xiJpA2nRJO/lNpfIjyayXI4HRZUMkRZqfBYlU6Bl4AVdUzbsyihW1o1BIku7F+UztoMWuW3gCBJZfN9lRFUnn01PO5Rnw20+0O59O5LlMZ8E3uloAAI9i0BokTWiZBBtrLm/Z42uE9aaIou74tINXLahZvZXZX0sFkssstTX6nCxBxZkXP196473RH5WoyM3K6rIkst61lKBNqTr7EiJMsmpS1xK46n3Z5fXXPNBrJ2L71pLjNklwYBJ0S0/yhRZ9jKkwx4hskwB5+Iz55KH8ouDlGVOR/+GyIoyRu4rSvsAYZlZGu0ikWVicxUaviLLXB6LIIzc+lVFkldiOWWjZWkBl931KMfjk3juJaTSYowyUTiNSwiRJc/fV9ZlCe+2Pb4iy+2ZUO5FbVkwUGRZUVQryV57lnznCo9n09UOY/5x5EuqcwhEVid+LeHUHkjAVWQ9cXAbPXlguzac3r5cyEKKo1d3fWcxfWFgaShXf3auWZRyeFkmx/N7De1PtOVC45uo3Ym2DBA0yanmirZLd4q3/zTQePsXvmNJIULUxnGuuJYqvHyT1F0m3FxElmcSvM5FXzYJGGO+mXRxJMuBLXIkytx12DmRpYuVoOiQSw5VUOK8y/h8BRYDChRZQbsvQz32oRpFFlmZXtM5VCm7jEsIkSUjy2K58b/NTTOdejZVO/yeMzYcIivUTYFGiSTgmfjOQut/j/xVRmVuumJmr8rHYk+bie9cuoGjV/eIXKpi5d2EbneFvbTIy4mPi9wuXkZU62VFSnx3Db9bE1dmGUAVDOnJb99KNTHctlIRbGpOljHZ8i+AmWvKrTyOoG+e5vXMPKsAe3KIZOn2+fXvLT4Dx9gpJhYDMy8lH1v2Q01DVimGMmN3nI/IcMuBckR0PM83RJIUQCK3S4lE+e/WM8WNtXxZ5lVCwWV88prn3CNYNrMAkdVdUSw2J5LIEvfiA7TSWso2vnSFEVnieu7lXyI+m552hMjJytz7QfNJqBscjUCgxxBACQcPV5klHDiS1U8UIWWRxTsK+We5XMjVR5WP/QJpjlzxTkMWWRdEvSw1khWlhIOeZK4bm90dSEbukb5jyF76Iy1h3ao3JRPYL88URuQrTBW7AyetabSKm4aYFNVlNd6ZuG42vbrWe3eh71Kkiz+Ci5G6j1ff9aTveAoco5XLwsUic2Ji7Hjs2t2Fen0rtte1yKivyDD6iJTTJS6oLvfxuXObabJWjNRpI000c8CUpPslZbRBbHZ9UhYzDRqfXiMrewvpOxR9I1lhSljkcVqPJLKMZWvKpAmwQdl73213YcZkFmOuhXm9nh33556LISgnHFcAABMFSURBVNspBVk79A0m5m5fx0YVvxzPPDJGVyAQBwIQWR5eMIuRuoksVTip3XBbP5GVazHSONwwPcsGc/LvWdbDWhAAARAAgZ5NACLLx3/qa3Xs5cK7v3u9jGipHzuaZb7jkCNYv/7dS9pyYadeq9Oz77Vutz5vVbW73XJcEARAAARAIAkEILJ8vKi+INqOZNXetlTmZLWJHK3CgkL5rkL1w+8yTKU6ZA4Wi6x1T22QNbU4soUXRHfPI2Pvxgz9jsPuMQtXAQEQAAEQ6GUEILICHF6/9xBt3rZbtuIaWbOqrqI5M77iyMUyu+Go1o5d9fT27nqxK7GPPLxg3jSaUjmul91iGC4IgAAIgAAI9E4CEFkh/G4nwbNw4nIMoy4bLupljaaRouL7QFHOoZSLkYpjnOj+ydnP6OSpT2n/wQZq/LBJvsuQI1hRkt1DmIQmIAACIAACIAACMScAkRXSQRzR2rK9Tpa04NIMHe1it2G/vrJ2VpFVA6u9IyUqvbfRRWs3IS8rssCaX12FCFZIzmgGAiAAAiAAAkkhAJEVwZOco/VO3R56/+BRcVaBLOPAOVgijGX1UiByr+yyDimaOH4MzayaTEMGXxLhKmgKAiAAAiAAAiCQBAIQWTl4kcXWAfG6nIZ/NdHpM2fpXHOL7GVAaX8aOmQQlYvlxIpxoyGucmCLU0AABEAABEAgKQQgspLiSYwDBEAABEAABEAgVgQgsmLlDhgDAiAAAiAAAiCQFAIQWUnxJMYBAiAAAiAAAiAQKwIQWbFyB4wBARAAARAAARBICgGIrKR4EuMAARAAARAAARCIFQGIrFi5A8aAAAiAAAiAAAgkhQBEVlI8iXGAAAiAAAiAAAjEikCvE1lHGz+KlQNgDAiAAAiAAAiAQDIJ9DqRlUw3YlQgAAIgAAIgAAJxIwCRFTePwB4QAAEQAAEQAIFEEIDISoQbMQgQAAEQAAEQAIG4EYDIiptHYA8IgAAIgAAIgEAiCEBkJcKNGAQIgAAIgAAIgEDcCEBkxc0jsAcEQAAEQAAEQCARBCCyEuFGDAIEQAAEQAAEQCBuBCCycvDImU//TQcONVLD8SY6/clZOtfcInsZUNqfhn5xEJVfPpwqxo2mIYMvyaF3nAICIAACIAACIJAEAhBZEbzI4uqduj2078ARSqWICgoK5NkdHR3yz8LCQvFv/HNK/jmpYizNrJoMsRWBMZqCAAiAAAiAQFIIQGSF9GT93kO0ZXudEFcp+T8LrNa2NioQ/5WU9JO9NJ8XES0hvvr27ZNpw+3mV1fRlMpxIa+EZiAAAiAAAiAAAkkgAJEVwou73v0HvbWrXrbMCKzWNho5YijN+tpVNOqyYfJYw/ETtPNve6ip6YwmtPjYnOlTaPrUL4e4GpqAAAiAAAiAAAgkgQBEVoAXOYK1edturVWrEFjDhw2hm5fMp5L+6SiW/Wm5cJGe3bCFTjSdlkJL/SyYNw0RrSQ8NRgDCIAACIAACIQgAJHlA4lzsJ56dpOMXqkfFllLFlbThPHl1NbWTkVFhfJwe3sH9elTRAf+eYxe3LhV/l1kbmVO5aXD225eiBytEDcmmoAACIAACIBATycAkeXjwU1bdook96Nai3aR5N6/uC/dectiKhVRLNZfhYV2Anw64f18y0X6zdMvEUe1iopYaGU/kyrG0ML5s3K7b46+QAuveYYmrttID1erXeyiVZU76Rt7V1JNbj3n9yxh56IfEj364o00Ng89b/3xtbTslWxHBam59GyYsW5fQyNqG+hnrz1Kd47JgyHo4j9E4HNa+1gd7Z9bQ2sr/0Mm5PmyR9b/gGYcXkYnfj49uOeg+zjoeOYK4eYJadsjyrw3YTn9NU/PcvBgfVqEHmenroKTQSCvBCCyPHByFOvJP7zqONre3k79+xXTXbdcL5YKi3WRxQnx4ozmlgv0xNMvU8vFVioSOw7Nz+3fXpRTNIvFxhs0l56hWcbkHG7yzOud49dZF4isR658jDbderm8qhRdH8Rk4u82qCEv9PFhmvd4A+0uK6c9915JV2qnpcXKqlNl9PLqyTRfO9ZEK366l9Zbgddpc6poW/XAdAu7z2xQNv3vl7pdw89Ov+vzeV7Hw4os+/y0DdoYQuLrrmaRRJZpFIuNP5tzQBjLg+YJPv4g/X6i8WyJ6z1AK40vdmGu18VtcubQxXahexBQCEBkedwOarK73iQllwiXXltDFVeM0pcLRZSrj4hcfXCogV58dbsjJ8vuJ7ck+PQEuWDvLNrsiFoFTZ7dfM93scginlzXjo7Ht+tuRut/OUuMlJXR+pOlusjau4dKN5yjh+YMoFVvkUNkbfnjVtpYaUWKpKg6SUvumU4r0ns6HB9uv7igkppvHB6OQMD1yfd4CJFlCcHKpT0j2hVHkSW/vNCPwkXXwnm9a1tBZHUtX/SeFwKeImvNvjfotWN/lxe56YoZdMf46rxcsKd08vwrf6GGYyc0c9XSDSOHX0rLbrhaRrXUTzrxfbNIfHfuMLTblY8aQd+67uvRUCgTCk+GamSHyBRZ1jdSK/KwfG16eVFO7K/PzogTbaLn/le8mbYpNUZZYjtOTyx9iOiXy+jQNeJbrujTuVxnXO/+5bT/dXW50N0eIqvvFbNpY+0z9J6I0rktA+rjFefceC9t/GY2spUef9o2/tjjdXAJGqNpR1B7XyZpO1e/b7m5G5ZcDm/fRZP3ldGeuc00+U1VZH1O69YdofG1InolxYxTZOk3Y1rUbJikRLO0Bhz1OkITTBEm+z6ZaZmNJAVdP/h4ermwiia8yZE4vkQpPXR3VgSy6PvFMC97LZM87Usfl8Jxv22+W7Qv2iPr11oXWUHPWPb5Hmss5aXvdeP597xvfb6M8Reja3bQosCldb/7Wn+e3+Xn8ToWbZR5PvW5I2r7IA758w96AoF8EXAVWSywnj+yS7vG7RXVdOf4efm6buz7eey3f6LPz53X7LRFFv95sbWVRgzjEg6TabSo8M4J7sc+/Jh21tXTR2JnYXHfvrKWln2O2tHAASV07/duiMRALhVebeViOSI56uRpihA+9hyNsybPTD9j9LypretfoLG3WjlUWv/p/n6yLyuA9G+8TtGjL+f52WNN2Cn/pT8zJ4s0weLXv/5LJWiMqw07gtoHMVldkY0KmAI3kvPDNFajTyeF2NFEltJBKJGVXjokj6iQFHMnx+pRLDsSpQgfV7ODru96PLsMeOsSK1KltbNE31yO0tkiTxdhmUiZh308pl+VTc/kfEnBdSrqcmgYR6XbOESW7zPmIqK05cKw97mPyAoVHbaeV8/72nyerS8/lP3S5jbu7HMX1D6IQ3j+aAkC3UXAVWTN2/wgnWu7oNkwsmQwvVJzX3fZ9R+/zsPrntN2FdpiqU0UIO1XXCx3Dl4Uuwz5y1pJSX9p73mRi8VJWly6oVUsKV4QUS21MKk9KBZfD9QuCz9G+S2zke7LJHvrwkmL2LhMllokyFrKW/SlHUR3eCWEG6JNRrKUtupyoMM2MSz1uK89JAXcwVozkV9H44jciT5H1lI66uXb/3GfDQFOYepvRyeZ2FE7lWP4OyCwpRbJYQHSCZHlLzDco1ihIkk8ik6ILD3xXbXDyiebpCxfGtcJbZ9N2o9hoDeCG7hHsjyeMTNS7Vgm80sXUI91UmS5PevafW1H5LLj4HF+n1Zl8im1ucHlmfBvD5EVfGehRdwIhBZZI0oG0caa++Nmf5fZY4osvhCXbuCyDTWzvyrrY7FYYpGlvlaHiz2wIOPq71t3vCfysxoduVlRRZZjt489ahmK591JyuSjLhUodKben11ec0xk3M7auShD/OKTDes7J84gEeU4bi9DOuwRIssUcC4edS6Ppr8xS1FEyjKno39DZEUZY76ZdKXIMgVBJ0SWjFKJnC11KU51SWZJUkuqD5EzpYoXv+VKn0iWv8gyly9VERbCPrfk/siJ/eGnoy4VWZ73edByofpFzmUsrtEudX6AyAp/B6BlbyHgKrKeOLiNnjywXWPQ25cLWUhx9Oqu7yymLwwsDXV/fHauWZRyeFkmx/N7De1PtOVCRVBUK5dVozmmyPJNChcT7dKd4u0/DTTejqpoffE1IkRtHOeK09XJ2HcZwkXA5SKyPMeri89M9EteI2CM+WbShSJLzyXSAWaW10KInCCBReS1jBiUw6XY1IWRLH150ymyvHPMXOzvqZEs3/vWL+LllutoPIxuzzoiWaF+F6BR7yXgmfjOQmvTsf+TZBaO+q9elY/FYzYT37l0A0ev7hG5VMXKuwndbh17aZGXEx8XuV28jKjWy4qU+O4aouerquLLXBJ4kPatVBPDbSuVc9ScLEMI8bfsmWvKrST0gEiWlXSevZ57XoanPTlEsnT70nkc7v0bET5FjAWOsVNMPHJXwtZF6ux8lEskK0ROlXsUK21sWqANcCkNYQwmTyLL3N1oLnGatvrbZ4pHa/nRtQxGZ52TPr/LIlm+962fyBJG2RGwxcYOw0wJh6D7GpGs/Nwd6CVJBHxLOCRpoFHHYpZw4EhWP1GElEUW7yjkn+VyIVcfVT72C6Q5csU7DVlkXRD1stRIVpQSDn7bqrMTNe/eUYuRWgmkxtIfGVu0s31fru2Emyp2B05a02gVNw0SWcrkzNfjnYnrZtOra713F/ouRbo4KrgYqft4a8xolbLbL3CMloi1dwcGtneUrdBt0pP1o96NEdu7iCz3aJe9g06vkZW9mrLDLkSJhLSQac6crtap8r++ubPP7sK+vl7/Sh6daJaPMNq4LPX52ZfOFVOS5peU0Qax2fZJR62xiL7waN4pkaXspnXuLtR3/+n3bYDIkrYauwf5nzJpCfyD333dzSLLwSE/vkEvIJBPAhBZHjTNYqRuIksVTmo33NZPZOVajDSfju8dfYX5pdI7SGCUIAACIAAC3U8AIsuHufpaHXu58O7vXi8jWurHjmaZ7zjkCNavf/eStlzYqdfqdP/90aOv2KmCjz165DAeBEAABEAgDgQgsny8oL4g2o5k1d62VOZktYkcrcKCQvmuQvXD7zJMpTpkDhaLrHVPbZA1tTiyhRdEd88tb+/GDP2Ow+4xC1cBARAAARDoZQQgsgIcXr/3EG3etlu24hpZs6quojkzvuLIxTK74ajWjl319PbuerErsY88vGDeNJpSOa6X3WIYLgiAAAiAAAj0TgIQWSH8bifBs3DicgyjLhsu6mWNppGi4vtAUc6hlIuRimOc6P7J2c/o5KlPaf/BBmr8sEm+y5AjWFGS3UOYhCYgAAIgAAIgAAIxJwCRFdJBHNHasr1OFhrl0gwd7WK3Yb++snZWkVUDq70jJSq9t9FFazchLyuywJpfXYUIVkjOaAYCIAACIAACSSEAkRXBk5yj9U7dHnr/4FFxVoEs48A5WCKMZfVSIHKv7LIOKZo4fgzNrJpMQwZfEuEqaAoCIAACIAACIJAEAhBZOXiRxdYB8bqchn810ekzZ+lcc4vsZUBpfxo6ZBCVi+XEinGjIa5yYItTQAAEQAAEQCApBCCykuJJjAMEQAAEQAAEQCBWBCCyYuUOGAMCIAACIAACIJAUAhBZSfEkxgECIAACIAACIBArAhBZsXIHjAEBEAABEAABEEgKAYispHgS4wABEAABEAABEIgVAYisWLkDxoAACIAACIAACCSFAERWUjyJcYAACIAACIAACMSKQK8TWUcbP4qVA2AMCIAACIAACIBAMgn0OpGVTDdiVCAAAiAAAiAAAnEjAJEVN4/AHhAAARAAARAAgUQQgMhKhBsxCBAAARAAARAAgbgRgMiKm0dgDwiAAAiAAAiAQCIIQGQlwo0YBAiAAAiAAAiAQNwIQGTFzSOwBwRAAARAAARAIBEEILIS4UYMAgRAAARAAARAIG4EILLi5hHYAwIgAAIgAAIgkAgCEFmJcCMGAQIgAAIgAAIgEDcCEFlx8wjsAQEQAAEQAAEQSAQBiKxEuBGDAAEQAAEQAAEQiBsBiKy4eQT2gAAIgAAIgAAIJIIARFYi3IhBgAAIgAAIgAAIxI0ARFbcPAJ7QAAEQAAEQAAEEkEAIisRbsQgQAAEQAAEQAAE4kYAIituHoE9IAACIAACIAACiSAAkZUIN2IQIAACIAACIAACcSMAkRU3j8AeEAABEAABEACBRBCAyEqEGzEIEAABEAABEACBuBGAyIqbR2APCIAACIAACIBAIghAZCXCjRgECIAACIAACIBA3AhAZMXNI7AHBEAABEAABEAgEQQgshLhRgwCBEAABEAABEAgbgQgsuLmEdgDAiAAAiAAAiCQCAIQWYlwIwYBAiAAAiAAAiAQNwIQWXHzCOwBARAAARAAARBIBAGIrES4EYMAARAAARAAARCIGwGIrLh5BPaAAAiAAAiAAAgkggBEViLciEGAAAiAAAiAAAjEjQBEVtw8AntAAARAAARAAAQSQQAiKxFuxCBAAARAAARAAATiRgAiK24egT0gAAIgAAIgAAKJIPD/ejqev6iCXboAAAAASUVORK5CYII=;" vertex="1" parent="1">
          <mxGeometry x="80" y="1080" width="601" height="415" as="geometry" />
        </mxCell>
        <mxCell id="SVLck4oqUuRZuGiBwl6L-21" value="" style="ellipse;whiteSpace=wrap;html=1;aspect=fixed;fillColor=#dae8fc;strokeColor=#6c8ebf;" vertex="1" parent="1">
          <mxGeometry x="165" y="1750" width="20" height="20" as="geometry" />
        </mxCell>
        <mxCell id="SVLck4oqUuRZuGiBwl6L-22" value="" style="endArrow=classic;html=1;rounded=0;" edge="1" parent="1">
          <mxGeometry width="50" height="50" relative="1" as="geometry">
            <mxPoint x="190" y="1760" as="sourcePoint" />
            <mxPoint x="290" y="1760" as="targetPoint" />
          </mxGeometry>
        </mxCell>
        <mxCell id="SVLck4oqUuRZuGiBwl6L-23" value="" style="ellipse;whiteSpace=wrap;html=1;aspect=fixed;fillColor=#dae8fc;strokeColor=#6c8ebf;" vertex="1" parent="1">
          <mxGeometry x="290" y="1750" width="20" height="20" as="geometry" />
        </mxCell>
        <mxCell id="SVLck4oqUuRZuGiBwl6L-24" value="" style="endArrow=classic;html=1;rounded=0;" edge="1" parent="1">
          <mxGeometry width="50" height="50" relative="1" as="geometry">
            <mxPoint x="313.11" y="1760" as="sourcePoint" />
            <mxPoint x="413.11" y="1760" as="targetPoint" />
          </mxGeometry>
        </mxCell>
        <mxCell id="SVLck4oqUuRZuGiBwl6L-25" value="" style="ellipse;whiteSpace=wrap;html=1;aspect=fixed;fillColor=#dae8fc;strokeColor=#6c8ebf;" vertex="1" parent="1">
          <mxGeometry x="413.11" y="1750" width="20" height="20" as="geometry" />
        </mxCell>
        <mxCell id="SVLck4oqUuRZuGiBwl6L-26" value="&lt;b&gt;Commit&lt;/b&gt;" style="text;strokeColor=none;align=center;fillColor=none;html=1;verticalAlign=middle;whiteSpace=wrap;rounded=0;" vertex="1" parent="1">
          <mxGeometry x="270" y="1787" width="60" height="30" as="geometry" />
        </mxCell>
        <mxCell id="SVLck4oqUuRZuGiBwl6L-27" value="&lt;b&gt;Commit&lt;/b&gt;" style="text;strokeColor=none;align=center;fillColor=none;html=1;verticalAlign=middle;whiteSpace=wrap;rounded=0;" vertex="1" parent="1">
          <mxGeometry x="390" y="1787" width="60" height="30" as="geometry" />
        </mxCell>
        <mxCell id="SVLck4oqUuRZuGiBwl6L-28" value="&lt;div&gt;&lt;b&gt;Initial&lt;/b&gt;&lt;/div&gt;&lt;div&gt;&lt;b&gt;Commit&lt;/b&gt;&lt;/div&gt;" style="text;strokeColor=none;align=center;fillColor=none;html=1;verticalAlign=middle;whiteSpace=wrap;rounded=0;" vertex="1" parent="1">
          <mxGeometry x="140" y="1787" width="60" height="63" as="geometry" />
        </mxCell>
        <mxCell id="SVLck4oqUuRZuGiBwl6L-29" value="&lt;b&gt;Main Branch&lt;/b&gt;" style="text;strokeColor=none;align=center;fillColor=none;html=1;verticalAlign=middle;whiteSpace=wrap;rounded=0;" vertex="1" parent="1">
          <mxGeometry x="60" y="1750" width="80" height="30" as="geometry" />
        </mxCell>
        <mxCell id="SVLck4oqUuRZuGiBwl6L-30" value="" style="ellipse;whiteSpace=wrap;html=1;aspect=fixed;fillColor=#f8cecc;strokeColor=#b85450;" vertex="1" parent="1">
          <mxGeometry x="413.11" y="1670" width="20" height="20" as="geometry" />
        </mxCell>
        <mxCell id="SVLck4oqUuRZuGiBwl6L-35" value="" style="endArrow=classic;html=1;rounded=0;" edge="1" parent="1">
          <mxGeometry width="50" height="50" relative="1" as="geometry">
            <mxPoint x="320" y="1750" as="sourcePoint" />
            <mxPoint x="410" y="1690" as="targetPoint" />
          </mxGeometry>
        </mxCell>
        <mxCell id="SVLck4oqUuRZuGiBwl6L-36" value="&lt;b&gt;Bug Fix Branch&lt;/b&gt;" style="text;strokeColor=none;align=center;fillColor=none;html=1;verticalAlign=middle;whiteSpace=wrap;rounded=0;" vertex="1" parent="1">
          <mxGeometry x="462.22" y="1660" width="107.78" height="30" as="geometry" />
        </mxCell>
        <mxCell id="SVLck4oqUuRZuGiBwl6L-41" value="" style="ellipse;whiteSpace=wrap;html=1;aspect=fixed;fillColor=#dae8fc;strokeColor=#6c8ebf;" vertex="1" parent="1">
          <mxGeometry x="175" y="2180" width="20" height="20" as="geometry" />
        </mxCell>
        <mxCell id="SVLck4oqUuRZuGiBwl6L-42" value="" style="endArrow=classic;html=1;rounded=0;" edge="1" parent="1">
          <mxGeometry width="50" height="50" relative="1" as="geometry">
            <mxPoint x="200" y="2190" as="sourcePoint" />
            <mxPoint x="300" y="2190" as="targetPoint" />
          </mxGeometry>
        </mxCell>
        <mxCell id="SVLck4oqUuRZuGiBwl6L-43" value="" style="ellipse;whiteSpace=wrap;html=1;aspect=fixed;fillColor=#dae8fc;strokeColor=#6c8ebf;" vertex="1" parent="1">
          <mxGeometry x="300" y="2180" width="20" height="20" as="geometry" />
        </mxCell>
        <mxCell id="SVLck4oqUuRZuGiBwl6L-44" value="" style="endArrow=classic;html=1;rounded=0;" edge="1" parent="1">
          <mxGeometry width="50" height="50" relative="1" as="geometry">
            <mxPoint x="323.11" y="2190" as="sourcePoint" />
            <mxPoint x="423.11" y="2190" as="targetPoint" />
          </mxGeometry>
        </mxCell>
        <mxCell id="SVLck4oqUuRZuGiBwl6L-45" value="" style="ellipse;whiteSpace=wrap;html=1;aspect=fixed;fillColor=#dae8fc;strokeColor=#6c8ebf;" vertex="1" parent="1">
          <mxGeometry x="423.11" y="2180" width="20" height="20" as="geometry" />
        </mxCell>
        <mxCell id="SVLck4oqUuRZuGiBwl6L-46" value="&lt;b&gt;Commit&lt;/b&gt;" style="text;strokeColor=none;align=center;fillColor=none;html=1;verticalAlign=middle;whiteSpace=wrap;rounded=0;" vertex="1" parent="1">
          <mxGeometry x="280" y="2217" width="60" height="30" as="geometry" />
        </mxCell>
        <mxCell id="SVLck4oqUuRZuGiBwl6L-47" value="&lt;b&gt;Commit&lt;/b&gt;" style="text;strokeColor=none;align=center;fillColor=none;html=1;verticalAlign=middle;whiteSpace=wrap;rounded=0;" vertex="1" parent="1">
          <mxGeometry x="400" y="2217" width="60" height="30" as="geometry" />
        </mxCell>
        <mxCell id="SVLck4oqUuRZuGiBwl6L-48" value="&lt;div&gt;&lt;b&gt;Initial&lt;/b&gt;&lt;/div&gt;&lt;div&gt;&lt;b&gt;Commit&lt;/b&gt;&lt;/div&gt;" style="text;strokeColor=none;align=center;fillColor=none;html=1;verticalAlign=middle;whiteSpace=wrap;rounded=0;" vertex="1" parent="1">
          <mxGeometry x="150" y="2217" width="60" height="63" as="geometry" />
        </mxCell>
        <mxCell id="SVLck4oqUuRZuGiBwl6L-49" value="&lt;b&gt;Main Branch&lt;/b&gt;" style="text;strokeColor=none;align=center;fillColor=none;html=1;verticalAlign=middle;whiteSpace=wrap;rounded=0;" vertex="1" parent="1">
          <mxGeometry x="70" y="2180" width="80" height="30" as="geometry" />
        </mxCell>
        <mxCell id="SVLck4oqUuRZuGiBwl6L-50" value="" style="ellipse;whiteSpace=wrap;html=1;aspect=fixed;fillColor=#f8cecc;strokeColor=#b85450;" vertex="1" parent="1">
          <mxGeometry x="423.11" y="2100" width="20" height="20" as="geometry" />
        </mxCell>
        <mxCell id="SVLck4oqUuRZuGiBwl6L-51" value="" style="endArrow=classic;html=1;rounded=0;" edge="1" parent="1">
          <mxGeometry width="50" height="50" relative="1" as="geometry">
            <mxPoint x="330" y="2180" as="sourcePoint" />
            <mxPoint x="420" y="2120" as="targetPoint" />
          </mxGeometry>
        </mxCell>
        <mxCell id="SVLck4oqUuRZuGiBwl6L-52" value="&lt;b&gt;Bug Fix Branch&lt;/b&gt;" style="text;strokeColor=none;align=center;fillColor=none;html=1;verticalAlign=middle;whiteSpace=wrap;rounded=0;" vertex="1" parent="1">
          <mxGeometry x="452.44000000000005" y="2060" width="107.78" height="30" as="geometry" />
        </mxCell>
        <mxCell id="SVLck4oqUuRZuGiBwl6L-53" value="" style="endArrow=classic;html=1;rounded=0;" edge="1" parent="1">
          <mxGeometry width="50" height="50" relative="1" as="geometry">
            <mxPoint x="460.22" y="2190" as="sourcePoint" />
            <mxPoint x="560.22" y="2190" as="targetPoint" />
          </mxGeometry>
        </mxCell>
        <mxCell id="SVLck4oqUuRZuGiBwl6L-54" value="" style="ellipse;whiteSpace=wrap;html=1;aspect=fixed;fillColor=#dae8fc;strokeColor=#6c8ebf;" vertex="1" parent="1">
          <mxGeometry x="560.22" y="2180" width="20" height="20" as="geometry" />
        </mxCell>
        <mxCell id="SVLck4oqUuRZuGiBwl6L-55" value="" style="endArrow=classic;html=1;rounded=0;" edge="1" parent="1">
          <mxGeometry width="50" height="50" relative="1" as="geometry">
            <mxPoint x="450" y="2120" as="sourcePoint" />
            <mxPoint x="560" y="2180" as="targetPoint" />
          </mxGeometry>
        </mxCell>
        <mxCell id="SVLck4oqUuRZuGiBwl6L-56" value="" style="ellipse;whiteSpace=wrap;html=1;aspect=fixed;fillColor=#d5e8d4;strokeColor=#82b366;" vertex="1" parent="1">
          <mxGeometry x="560" y="2260" width="20" height="20" as="geometry" />
        </mxCell>
        <mxCell id="SVLck4oqUuRZuGiBwl6L-57" value="&lt;b&gt;Feature Branch&lt;/b&gt;" style="text;strokeColor=none;align=center;fillColor=none;html=1;verticalAlign=middle;whiteSpace=wrap;rounded=0;" vertex="1" parent="1">
          <mxGeometry x="570" y="2290" width="107.78" height="30" as="geometry" />
        </mxCell>
        <mxCell id="SVLck4oqUuRZuGiBwl6L-58" value="" style="endArrow=classic;html=1;rounded=0;" edge="1" parent="1">
          <mxGeometry width="50" height="50" relative="1" as="geometry">
            <mxPoint x="453" y="2209" as="sourcePoint" />
            <mxPoint x="563" y="2269" as="targetPoint" />
          </mxGeometry>
        </mxCell>
        <mxCell id="SVLck4oqUuRZuGiBwl6L-83" value="" style="ellipse;whiteSpace=wrap;html=1;aspect=fixed;fillColor=#dae8fc;strokeColor=#6c8ebf;" vertex="1" parent="1">
          <mxGeometry x="175" y="2590" width="20" height="20" as="geometry" />
        </mxCell>
        <mxCell id="SVLck4oqUuRZuGiBwl6L-84" value="" style="endArrow=classic;html=1;rounded=0;" edge="1" parent="1">
          <mxGeometry width="50" height="50" relative="1" as="geometry">
            <mxPoint x="200" y="2600" as="sourcePoint" />
            <mxPoint x="300" y="2600" as="targetPoint" />
          </mxGeometry>
        </mxCell>
        <mxCell id="SVLck4oqUuRZuGiBwl6L-85" value="" style="ellipse;whiteSpace=wrap;html=1;aspect=fixed;fillColor=#dae8fc;strokeColor=#6c8ebf;" vertex="1" parent="1">
          <mxGeometry x="300" y="2590" width="20" height="20" as="geometry" />
        </mxCell>
        <mxCell id="SVLck4oqUuRZuGiBwl6L-86" value="" style="endArrow=classic;html=1;rounded=0;" edge="1" parent="1">
          <mxGeometry width="50" height="50" relative="1" as="geometry">
            <mxPoint x="323.11" y="2600" as="sourcePoint" />
            <mxPoint x="423.11" y="2600" as="targetPoint" />
          </mxGeometry>
        </mxCell>
        <mxCell id="SVLck4oqUuRZuGiBwl6L-87" value="" style="ellipse;whiteSpace=wrap;html=1;aspect=fixed;fillColor=#dae8fc;strokeColor=#6c8ebf;" vertex="1" parent="1">
          <mxGeometry x="423.11" y="2590" width="20" height="20" as="geometry" />
        </mxCell>
        <mxCell id="SVLck4oqUuRZuGiBwl6L-88" value="&lt;b&gt;Commit&lt;/b&gt;" style="text;strokeColor=none;align=center;fillColor=none;html=1;verticalAlign=middle;whiteSpace=wrap;rounded=0;" vertex="1" parent="1">
          <mxGeometry x="280" y="2627" width="60" height="30" as="geometry" />
        </mxCell>
        <mxCell id="SVLck4oqUuRZuGiBwl6L-89" value="&lt;b&gt;Commit&lt;/b&gt;" style="text;strokeColor=none;align=center;fillColor=none;html=1;verticalAlign=middle;whiteSpace=wrap;rounded=0;" vertex="1" parent="1">
          <mxGeometry x="400" y="2627" width="60" height="30" as="geometry" />
        </mxCell>
        <mxCell id="SVLck4oqUuRZuGiBwl6L-90" value="&lt;div&gt;&lt;b&gt;Initial&lt;/b&gt;&lt;/div&gt;&lt;div&gt;&lt;b&gt;Commit&lt;/b&gt;&lt;/div&gt;" style="text;strokeColor=none;align=center;fillColor=none;html=1;verticalAlign=middle;whiteSpace=wrap;rounded=0;" vertex="1" parent="1">
          <mxGeometry x="150" y="2627" width="60" height="63" as="geometry" />
        </mxCell>
        <mxCell id="SVLck4oqUuRZuGiBwl6L-91" value="&lt;b&gt;Main Branch&lt;/b&gt;" style="text;strokeColor=none;align=center;fillColor=none;html=1;verticalAlign=middle;whiteSpace=wrap;rounded=0;" vertex="1" parent="1">
          <mxGeometry x="70" y="2590" width="80" height="30" as="geometry" />
        </mxCell>
        <mxCell id="SVLck4oqUuRZuGiBwl6L-92" value="" style="ellipse;whiteSpace=wrap;html=1;aspect=fixed;fillColor=#f8cecc;strokeColor=#b85450;" vertex="1" parent="1">
          <mxGeometry x="423.11" y="2510" width="20" height="20" as="geometry" />
        </mxCell>
        <mxCell id="SVLck4oqUuRZuGiBwl6L-93" value="" style="endArrow=classic;html=1;rounded=0;" edge="1" parent="1">
          <mxGeometry width="50" height="50" relative="1" as="geometry">
            <mxPoint x="330" y="2590" as="sourcePoint" />
            <mxPoint x="420" y="2530" as="targetPoint" />
          </mxGeometry>
        </mxCell>
        <mxCell id="SVLck4oqUuRZuGiBwl6L-94" value="&lt;b&gt;Bug Fix Branch&lt;/b&gt;" style="text;strokeColor=none;align=center;fillColor=none;html=1;verticalAlign=middle;whiteSpace=wrap;rounded=0;" vertex="1" parent="1">
          <mxGeometry x="452.44000000000005" y="2470" width="107.78" height="30" as="geometry" />
        </mxCell>
        <mxCell id="SVLck4oqUuRZuGiBwl6L-95" value="" style="endArrow=classic;html=1;rounded=0;" edge="1" parent="1">
          <mxGeometry width="50" height="50" relative="1" as="geometry">
            <mxPoint x="460.22" y="2600" as="sourcePoint" />
            <mxPoint x="560.22" y="2600" as="targetPoint" />
          </mxGeometry>
        </mxCell>
        <mxCell id="SVLck4oqUuRZuGiBwl6L-96" value="" style="ellipse;whiteSpace=wrap;html=1;aspect=fixed;fillColor=#dae8fc;strokeColor=#6c8ebf;" vertex="1" parent="1">
          <mxGeometry x="560.22" y="2590" width="20" height="20" as="geometry" />
        </mxCell>
        <mxCell id="SVLck4oqUuRZuGiBwl6L-97" value="" style="endArrow=classic;html=1;rounded=0;" edge="1" parent="1">
          <mxGeometry width="50" height="50" relative="1" as="geometry">
            <mxPoint x="450" y="2530" as="sourcePoint" />
            <mxPoint x="560" y="2590" as="targetPoint" />
          </mxGeometry>
        </mxCell>
        <mxCell id="SVLck4oqUuRZuGiBwl6L-98" value="" style="ellipse;whiteSpace=wrap;html=1;aspect=fixed;fillColor=#d5e8d4;strokeColor=#82b366;" vertex="1" parent="1">
          <mxGeometry x="560" y="2670" width="20" height="20" as="geometry" />
        </mxCell>
        <mxCell id="SVLck4oqUuRZuGiBwl6L-99" value="&lt;b&gt;Feature Branch&lt;/b&gt;" style="text;strokeColor=none;align=center;fillColor=none;html=1;verticalAlign=middle;whiteSpace=wrap;rounded=0;" vertex="1" parent="1">
          <mxGeometry x="570" y="2700" width="107.78" height="30" as="geometry" />
        </mxCell>
        <mxCell id="SVLck4oqUuRZuGiBwl6L-100" value="" style="endArrow=classic;html=1;rounded=0;" edge="1" parent="1">
          <mxGeometry width="50" height="50" relative="1" as="geometry">
            <mxPoint x="453" y="2619" as="sourcePoint" />
            <mxPoint x="563" y="2679" as="targetPoint" />
          </mxGeometry>
        </mxCell>
        <mxCell id="SVLck4oqUuRZuGiBwl6L-101" value="" style="endArrow=classic;html=1;rounded=0;" edge="1" parent="1">
          <mxGeometry width="50" height="50" relative="1" as="geometry">
            <mxPoint x="588" y="2600" as="sourcePoint" />
            <mxPoint x="688" y="2600" as="targetPoint" />
          </mxGeometry>
        </mxCell>
        <mxCell id="SVLck4oqUuRZuGiBwl6L-102" value="" style="ellipse;whiteSpace=wrap;html=1;aspect=fixed;fillColor=#dae8fc;strokeColor=#6c8ebf;" vertex="1" parent="1">
          <mxGeometry x="688" y="2590" width="20" height="20" as="geometry" />
        </mxCell>
        <mxCell id="SVLck4oqUuRZuGiBwl6L-103" value="" style="endArrow=classic;html=1;rounded=0;" edge="1" parent="1">
          <mxGeometry width="50" height="50" relative="1" as="geometry">
            <mxPoint x="598" y="2680" as="sourcePoint" />
            <mxPoint x="688" y="2620" as="targetPoint" />
          </mxGeometry>
        </mxCell>
        <mxCell id="SVLck4oqUuRZuGiBwl6L-104" value="" style="ellipse;whiteSpace=wrap;html=1;aspect=fixed;fillColor=#dae8fc;strokeColor=#6c8ebf;" vertex="1" parent="1">
          <mxGeometry x="209.11" y="2990" width="20" height="20" as="geometry" />
        </mxCell>
        <mxCell id="SVLck4oqUuRZuGiBwl6L-105" value="" style="endArrow=classic;html=1;rounded=0;" edge="1" parent="1">
          <mxGeometry width="50" height="50" relative="1" as="geometry">
            <mxPoint x="234.11" y="3000" as="sourcePoint" />
            <mxPoint x="334.11" y="3000" as="targetPoint" />
          </mxGeometry>
        </mxCell>
        <mxCell id="SVLck4oqUuRZuGiBwl6L-106" value="" style="ellipse;whiteSpace=wrap;html=1;aspect=fixed;fillColor=#dae8fc;strokeColor=#6c8ebf;" vertex="1" parent="1">
          <mxGeometry x="334.11" y="2990" width="20" height="20" as="geometry" />
        </mxCell>
        <mxCell id="SVLck4oqUuRZuGiBwl6L-107" value="" style="endArrow=classic;html=1;rounded=0;" edge="1" parent="1">
          <mxGeometry width="50" height="50" relative="1" as="geometry">
            <mxPoint x="357.22" y="3000" as="sourcePoint" />
            <mxPoint x="457.22" y="3000" as="targetPoint" />
          </mxGeometry>
        </mxCell>
        <mxCell id="SVLck4oqUuRZuGiBwl6L-108" value="" style="ellipse;whiteSpace=wrap;html=1;aspect=fixed;fillColor=#dae8fc;strokeColor=#6c8ebf;" vertex="1" parent="1">
          <mxGeometry x="457.22" y="2990" width="20" height="20" as="geometry" />
        </mxCell>
        <mxCell id="SVLck4oqUuRZuGiBwl6L-109" value="&lt;b&gt;R 1&lt;br&gt;&lt;/b&gt;" style="text;strokeColor=none;align=center;fillColor=none;html=1;verticalAlign=middle;whiteSpace=wrap;rounded=0;" vertex="1" parent="1">
          <mxGeometry x="314.11" y="3027" width="60" height="30" as="geometry" />
        </mxCell>
        <mxCell id="SVLck4oqUuRZuGiBwl6L-113" value="" style="ellipse;whiteSpace=wrap;html=1;aspect=fixed;fillColor=#f8cecc;strokeColor=#b85450;" vertex="1" parent="1">
          <mxGeometry x="457.22" y="2910" width="20" height="20" as="geometry" />
        </mxCell>
        <mxCell id="SVLck4oqUuRZuGiBwl6L-114" value="" style="endArrow=classic;html=1;rounded=0;" edge="1" parent="1">
          <mxGeometry width="50" height="50" relative="1" as="geometry">
            <mxPoint x="364.11" y="2990" as="sourcePoint" />
            <mxPoint x="454.11" y="2930" as="targetPoint" />
          </mxGeometry>
        </mxCell>
        <mxCell id="SVLck4oqUuRZuGiBwl6L-115" value="&lt;b&gt;Bug Fix Branch&lt;/b&gt;" style="text;strokeColor=none;align=center;fillColor=none;html=1;verticalAlign=middle;whiteSpace=wrap;rounded=0;" vertex="1" parent="1">
          <mxGeometry x="486.55000000000007" y="2870" width="107.78" height="30" as="geometry" />
        </mxCell>
        <mxCell id="SVLck4oqUuRZuGiBwl6L-116" value="" style="endArrow=classic;html=1;rounded=0;" edge="1" parent="1">
          <mxGeometry width="50" height="50" relative="1" as="geometry">
            <mxPoint x="494.33000000000004" y="3000" as="sourcePoint" />
            <mxPoint x="594.33" y="3000" as="targetPoint" />
          </mxGeometry>
        </mxCell>
        <mxCell id="SVLck4oqUuRZuGiBwl6L-117" value="" style="ellipse;whiteSpace=wrap;html=1;aspect=fixed;fillColor=#dae8fc;strokeColor=#6c8ebf;" vertex="1" parent="1">
          <mxGeometry x="594.33" y="2990" width="20" height="20" as="geometry" />
        </mxCell>
        <mxCell id="SVLck4oqUuRZuGiBwl6L-118" value="" style="endArrow=classic;html=1;rounded=0;" edge="1" parent="1">
          <mxGeometry width="50" height="50" relative="1" as="geometry">
            <mxPoint x="484.11" y="2930" as="sourcePoint" />
            <mxPoint x="594.11" y="2990" as="targetPoint" />
          </mxGeometry>
        </mxCell>
        <mxCell id="SVLck4oqUuRZuGiBwl6L-119" value="" style="ellipse;whiteSpace=wrap;html=1;aspect=fixed;fillColor=#d5e8d4;strokeColor=#82b366;" vertex="1" parent="1">
          <mxGeometry x="594.11" y="3070" width="20" height="20" as="geometry" />
        </mxCell>
        <mxCell id="SVLck4oqUuRZuGiBwl6L-121" value="" style="endArrow=classic;html=1;rounded=0;" edge="1" parent="1">
          <mxGeometry width="50" height="50" relative="1" as="geometry">
            <mxPoint x="487.11" y="3019" as="sourcePoint" />
            <mxPoint x="597.11" y="3079" as="targetPoint" />
          </mxGeometry>
        </mxCell>
        <mxCell id="SVLck4oqUuRZuGiBwl6L-122" value="" style="endArrow=classic;html=1;rounded=0;" edge="1" parent="1">
          <mxGeometry width="50" height="50" relative="1" as="geometry">
            <mxPoint x="622.11" y="3000" as="sourcePoint" />
            <mxPoint x="722.11" y="3000" as="targetPoint" />
          </mxGeometry>
        </mxCell>
        <mxCell id="SVLck4oqUuRZuGiBwl6L-123" value="" style="ellipse;whiteSpace=wrap;html=1;aspect=fixed;fillColor=#dae8fc;strokeColor=#6c8ebf;" vertex="1" parent="1">
          <mxGeometry x="722.11" y="2990" width="20" height="20" as="geometry" />
        </mxCell>
        <mxCell id="SVLck4oqUuRZuGiBwl6L-124" value="" style="endArrow=classic;html=1;rounded=0;" edge="1" parent="1">
          <mxGeometry width="50" height="50" relative="1" as="geometry">
            <mxPoint x="632.11" y="3080" as="sourcePoint" />
            <mxPoint x="722.11" y="3020" as="targetPoint" />
          </mxGeometry>
        </mxCell>
        <mxCell id="SVLck4oqUuRZuGiBwl6L-125" value="&lt;b&gt;Releases&lt;/b&gt;" style="text;strokeColor=none;align=center;fillColor=none;html=1;verticalAlign=middle;whiteSpace=wrap;rounded=0;" vertex="1" parent="1">
          <mxGeometry x="110" y="2820" width="80" height="30" as="geometry" />
        </mxCell>
        <mxCell id="SVLck4oqUuRZuGiBwl6L-126" value="&lt;b&gt;R2&lt;/b&gt;" style="text;strokeColor=none;align=center;fillColor=none;html=1;verticalAlign=middle;whiteSpace=wrap;rounded=0;" vertex="1" parent="1">
          <mxGeometry x="593.89" y="2940" width="60" height="30" as="geometry" />
        </mxCell>
        <mxCell id="SVLck4oqUuRZuGiBwl6L-129" value="&lt;b&gt;R 3&lt;br&gt;&lt;/b&gt;" style="text;strokeColor=none;align=center;fillColor=none;html=1;verticalAlign=middle;whiteSpace=wrap;rounded=0;" vertex="1" parent="1">
          <mxGeometry x="711.89" y="2940" width="60" height="30" as="geometry" />
        </mxCell>
        <mxCell id="SVLck4oqUuRZuGiBwl6L-132" value="" style="ellipse;whiteSpace=wrap;html=1;aspect=fixed;fillColor=#d5e8d4;strokeColor=#82b366;" vertex="1" parent="1">
          <mxGeometry x="344.11" y="3370" width="20" height="20" as="geometry" />
        </mxCell>
        <mxCell id="SVLck4oqUuRZuGiBwl6L-135" value="&lt;b&gt;R 1&lt;br&gt;&lt;/b&gt;" style="text;strokeColor=none;align=center;fillColor=none;html=1;verticalAlign=middle;whiteSpace=wrap;rounded=0;" vertex="1" parent="1">
          <mxGeometry x="324.11" y="3407" width="60" height="30" as="geometry" />
        </mxCell>
        <mxCell id="SVLck4oqUuRZuGiBwl6L-136" value="" style="ellipse;whiteSpace=wrap;html=1;aspect=fixed;fillColor=#f8cecc;strokeColor=#b85450;" vertex="1" parent="1">
          <mxGeometry x="477.22" y="3600" width="20" height="20" as="geometry" />
        </mxCell>
        <mxCell id="SVLck4oqUuRZuGiBwl6L-137" value="" style="endArrow=classic;html=1;rounded=0;" edge="1" parent="1">
          <mxGeometry width="50" height="50" relative="1" as="geometry">
            <mxPoint x="512.22" y="3610" as="sourcePoint" />
            <mxPoint x="602.22" y="3550" as="targetPoint" />
          </mxGeometry>
        </mxCell>
        <mxCell id="SVLck4oqUuRZuGiBwl6L-138" value="&lt;b&gt;Bug Fix Branch&lt;/b&gt;" style="text;strokeColor=none;align=center;fillColor=none;html=1;verticalAlign=middle;whiteSpace=wrap;rounded=0;" vertex="1" parent="1">
          <mxGeometry x="443.11000000000007" y="3630" width="107.78" height="30" as="geometry" />
        </mxCell>
        <mxCell id="SVLck4oqUuRZuGiBwl6L-139" value="" style="endArrow=classic;html=1;rounded=0;" edge="1" parent="1">
          <mxGeometry width="50" height="50" relative="1" as="geometry">
            <mxPoint x="380" y="3380" as="sourcePoint" />
            <mxPoint x="604.33" y="3380" as="targetPoint" />
          </mxGeometry>
        </mxCell>
        <mxCell id="SVLck4oqUuRZuGiBwl6L-140" value="" style="ellipse;whiteSpace=wrap;html=1;aspect=fixed;fillColor=#d5e8d4;strokeColor=#82b366;" vertex="1" parent="1">
          <mxGeometry x="604.33" y="3370" width="20" height="20" as="geometry" />
        </mxCell>
        <mxCell id="SVLck4oqUuRZuGiBwl6L-141" value="" style="endArrow=classic;html=1;rounded=0;" edge="1" parent="1">
          <mxGeometry width="50" height="50" relative="1" as="geometry">
            <mxPoint x="364.11" y="3550" as="sourcePoint" />
            <mxPoint x="474.11" y="3610" as="targetPoint" />
          </mxGeometry>
        </mxCell>
        <mxCell id="SVLck4oqUuRZuGiBwl6L-144" value="" style="endArrow=classic;html=1;rounded=0;" edge="1" parent="1">
          <mxGeometry width="50" height="50" relative="1" as="geometry">
            <mxPoint x="632.11" y="3380" as="sourcePoint" />
            <mxPoint x="732.11" y="3380" as="targetPoint" />
          </mxGeometry>
        </mxCell>
        <mxCell id="SVLck4oqUuRZuGiBwl6L-145" value="" style="ellipse;whiteSpace=wrap;html=1;aspect=fixed;fillColor=#d5e8d4;strokeColor=#82b366;" vertex="1" parent="1">
          <mxGeometry x="732.11" y="3370" width="20" height="20" as="geometry" />
        </mxCell>
        <mxCell id="SVLck4oqUuRZuGiBwl6L-146" value="" style="endArrow=classic;html=1;rounded=0;" edge="1" parent="1">
          <mxGeometry width="50" height="50" relative="1" as="geometry">
            <mxPoint x="630" y="3510" as="sourcePoint" />
            <mxPoint x="732.11" y="3400" as="targetPoint" />
          </mxGeometry>
        </mxCell>
        <mxCell id="SVLck4oqUuRZuGiBwl6L-147" value="&lt;b&gt;CD&lt;/b&gt;" style="text;strokeColor=none;align=center;fillColor=none;html=1;verticalAlign=middle;whiteSpace=wrap;rounded=0;" vertex="1" parent="1">
          <mxGeometry x="120" y="3200" width="80" height="30" as="geometry" />
        </mxCell>
        <mxCell id="SVLck4oqUuRZuGiBwl6L-148" value="&lt;b&gt;R2&lt;/b&gt;" style="text;strokeColor=none;align=center;fillColor=none;html=1;verticalAlign=middle;whiteSpace=wrap;rounded=0;" vertex="1" parent="1">
          <mxGeometry x="603.89" y="3320" width="60" height="30" as="geometry" />
        </mxCell>
        <mxCell id="SVLck4oqUuRZuGiBwl6L-149" value="&lt;b&gt;R 3&lt;br&gt;&lt;/b&gt;" style="text;strokeColor=none;align=center;fillColor=none;html=1;verticalAlign=middle;whiteSpace=wrap;rounded=0;" vertex="1" parent="1">
          <mxGeometry x="721.89" y="3320" width="60" height="30" as="geometry" />
        </mxCell>
        <mxCell id="SVLck4oqUuRZuGiBwl6L-150" value="" style="ellipse;whiteSpace=wrap;html=1;aspect=fixed;fillColor=#ffe6cc;strokeColor=#d79b00;" vertex="1" parent="1">
          <mxGeometry x="219.11" y="3520" width="20" height="20" as="geometry" />
        </mxCell>
        <mxCell id="SVLck4oqUuRZuGiBwl6L-151" value="" style="endArrow=classic;html=1;rounded=0;" edge="1" parent="1">
          <mxGeometry width="50" height="50" relative="1" as="geometry">
            <mxPoint x="244.11" y="3530" as="sourcePoint" />
            <mxPoint x="344.11" y="3530" as="targetPoint" />
          </mxGeometry>
        </mxCell>
        <mxCell id="SVLck4oqUuRZuGiBwl6L-152" value="" style="ellipse;whiteSpace=wrap;html=1;aspect=fixed;fillColor=#ffe6cc;strokeColor=#d79b00;" vertex="1" parent="1">
          <mxGeometry x="344.11" y="3520" width="20" height="20" as="geometry" />
        </mxCell>
        <mxCell id="SVLck4oqUuRZuGiBwl6L-153" value="" style="endArrow=classic;html=1;rounded=0;" edge="1" parent="1">
          <mxGeometry width="50" height="50" relative="1" as="geometry">
            <mxPoint x="367.22" y="3530" as="sourcePoint" />
            <mxPoint x="467.22" y="3530" as="targetPoint" />
          </mxGeometry>
        </mxCell>
        <mxCell id="SVLck4oqUuRZuGiBwl6L-154" value="" style="ellipse;whiteSpace=wrap;html=1;aspect=fixed;fillColor=#ffe6cc;strokeColor=#d79b00;" vertex="1" parent="1">
          <mxGeometry x="467.22" y="3520" width="20" height="20" as="geometry" />
        </mxCell>
        <mxCell id="SVLck4oqUuRZuGiBwl6L-155" value="" style="endArrow=classic;html=1;rounded=0;" edge="1" parent="1">
          <mxGeometry width="50" height="50" relative="1" as="geometry">
            <mxPoint x="504.33000000000004" y="3530" as="sourcePoint" />
            <mxPoint x="604.33" y="3530" as="targetPoint" />
          </mxGeometry>
        </mxCell>
        <mxCell id="SVLck4oqUuRZuGiBwl6L-156" value="" style="ellipse;whiteSpace=wrap;html=1;aspect=fixed;fillColor=#ffe6cc;strokeColor=#d79b00;" vertex="1" parent="1">
          <mxGeometry x="604.33" y="3520" width="20" height="20" as="geometry" />
        </mxCell>
        <mxCell id="SVLck4oqUuRZuGiBwl6L-157" value="" style="endArrow=classic;html=1;rounded=0;" edge="1" parent="1">
          <mxGeometry width="50" height="50" relative="1" as="geometry">
            <mxPoint x="632.11" y="3530" as="sourcePoint" />
            <mxPoint x="732.11" y="3530" as="targetPoint" />
          </mxGeometry>
        </mxCell>
        <mxCell id="SVLck4oqUuRZuGiBwl6L-158" value="" style="ellipse;whiteSpace=wrap;html=1;aspect=fixed;fillColor=#ffe6cc;strokeColor=#d79b00;" vertex="1" parent="1">
          <mxGeometry x="732.11" y="3520" width="20" height="20" as="geometry" />
        </mxCell>
        <mxCell id="SVLck4oqUuRZuGiBwl6L-159" value="&lt;div&gt;&lt;b&gt;PROD&lt;/b&gt;&lt;/div&gt;" style="text;strokeColor=none;align=center;fillColor=none;html=1;verticalAlign=middle;whiteSpace=wrap;rounded=0;" vertex="1" parent="1">
          <mxGeometry x="70" y="3365" width="80" height="30" as="geometry" />
        </mxCell>
        <mxCell id="SVLck4oqUuRZuGiBwl6L-160" value="INT" style="text;strokeColor=none;align=center;fillColor=none;html=1;verticalAlign=middle;whiteSpace=wrap;rounded=0;" vertex="1" parent="1">
          <mxGeometry x="70" y="3510" width="80" height="30" as="geometry" />
        </mxCell>
        <mxCell id="SVLck4oqUuRZuGiBwl6L-161" style="edgeStyle=orthogonalEdgeStyle;rounded=0;orthogonalLoop=1;jettySize=auto;html=1;exitX=0;exitY=0;exitDx=0;exitDy=0;entryX=1;entryY=0.5;entryDx=0;entryDy=0;" edge="1" parent="1" source="SVLck4oqUuRZuGiBwl6L-154" target="SVLck4oqUuRZuGiBwl6L-154">
          <mxGeometry relative="1" as="geometry" />
        </mxCell>
        <mxCell id="SVLck4oqUuRZuGiBwl6L-162" value="" style="ellipse;whiteSpace=wrap;html=1;aspect=fixed;fillColor=#d5e8d4;strokeColor=#82b366;" vertex="1" parent="1">
          <mxGeometry x="732.11" y="3370" width="20" height="20" as="geometry" />
        </mxCell>
        <mxCell id="SVLck4oqUuRZuGiBwl6L-163" value="" style="endArrow=classic;html=1;rounded=0;" edge="1" parent="1">
          <mxGeometry width="50" height="50" relative="1" as="geometry">
            <mxPoint x="759.89" y="3380" as="sourcePoint" />
            <mxPoint x="859.89" y="3380" as="targetPoint" />
          </mxGeometry>
        </mxCell>
        <mxCell id="SVLck4oqUuRZuGiBwl6L-164" value="" style="ellipse;whiteSpace=wrap;html=1;aspect=fixed;fillColor=#d5e8d4;strokeColor=#82b366;" vertex="1" parent="1">
          <mxGeometry x="859.89" y="3370" width="20" height="20" as="geometry" />
        </mxCell>
        <mxCell id="SVLck4oqUuRZuGiBwl6L-165" value="" style="endArrow=classic;html=1;rounded=0;" edge="1" parent="1">
          <mxGeometry width="50" height="50" relative="1" as="geometry">
            <mxPoint x="756" y="3520" as="sourcePoint" />
            <mxPoint x="858.11" y="3410" as="targetPoint" />
          </mxGeometry>
        </mxCell>
        <mxCell id="SVLck4oqUuRZuGiBwl6L-166" value="" style="endArrow=classic;html=1;rounded=0;" edge="1" parent="1">
          <mxGeometry width="50" height="50" relative="1" as="geometry">
            <mxPoint x="500" y="3509" as="sourcePoint" />
            <mxPoint x="602.11" y="3399" as="targetPoint" />
          </mxGeometry>
        </mxCell>
        <mxCell id="SVLck4oqUuRZuGiBwl6L-167" value="" style="endArrow=classic;html=1;rounded=0;" edge="1" parent="1">
          <mxGeometry width="50" height="50" relative="1" as="geometry">
            <mxPoint x="237" y="3509" as="sourcePoint" />
            <mxPoint x="339.11" y="3399" as="targetPoint" />
          </mxGeometry>
        </mxCell>
      </root>
    </mxGraphModel>
  </diagram>
  <diagram id="SBus94Bb-lJEuVzP94AH" name="Page-2">
    <mxGraphModel dx="1072" dy="689" grid="1" gridSize="10" guides="1" tooltips="1" connect="1" arrows="1" fold="1" page="1" pageScale="1" pageWidth="1169" pageHeight="827" math="0" shadow="0">
      <root>
        <mxCell id="0" />
        <mxCell id="1" parent="0" />
      </root>
    </mxGraphModel>
  </diagram>
</mxfile>
